<?xml version="1.0" standalone="no"?><!DOCTYPE svg PUBLIC "-//W3C//DTD SVG 1.1//EN" "http://www.w3.org/Graphics/SVG/1.1/DTD/svg11.dtd"><svg t="1621494715293" class="icon" viewBox="0 0 1024 1024" version="1.1" xmlns="http://www.w3.org/2000/svg" p-id="1526" xmlns:xlink="http://www.w3.org/1999/xlink" width="200" height="200"><defs><style type="text/css"></style></defs><path d="M897.5872 479.8976c-67.6864-49.92-3.1232-127.2832 33.5872-173.6192 3.3792-4.2496-1.6384-10.0352-6.3488-7.3216-86.6304 50.2784-98.56-12.3392-100.8128-24.6272-2.2016-12.0832 5.5296-26.112 1.6384-61.0304-0.4608-4.2496-5.8368-6.0416-8.6016-2.7648-36.096 42.0864-80.384 30.1568-93.4912 25.344a4.84864 4.84864 0 0 1-3.072-5.7344c2.048-8.3968 9.728-28.7744 38.7072-54.6304 3.1232-2.7648 1.6896-7.936-2.4576-8.6016-53.6576-8.8064-96.4608 5.5808-146.9952 58.5728-3.3792 3.5328-9.2672 0.512-8.3968-4.3008 20.48-113.9712-81.2544-146.8928-81.2544-146.8928h-3.4816S414.8736 107.2128 435.3536 221.184c0.8704 4.8128-5.0176 7.8848-8.3968 4.3008-50.5344-52.992-93.3376-67.3792-146.9952-58.5728-4.096 0.6656-5.5296 5.8368-2.4576 8.6016 28.9792 25.8048 36.7104 46.1824 38.7072 54.6304 0.6144 2.4576-0.7168 4.864-3.072 5.7344-13.1072 4.7616-57.4464 16.7424-93.4912-25.344-2.7648-3.2768-8.1408-1.4848-8.6016 2.7648-3.8912 34.8672 3.84 48.9472 1.6384 61.0304-2.2528 12.3392-14.1824 74.9568-100.8128 24.6272-4.7104-2.7136-9.728 3.072-6.3488 7.3216 36.7104 46.336 101.2736 123.6992 33.5872 173.6192-3.3792 2.4576-2.2016 7.7824 1.8432 8.704 57.6 13.568 87.8592 40.6528 99.4304 53.4016 2.816 3.1232 0.6656 8.192-3.5328 8.2432-7.9872 0.0512-21.0432-2.0992-38.6048-12.288-3.6864-2.1504-8.192 1.1264-7.3216 5.2736 7.7312 36.352 49.5104 72.4992 89.4976 87.1936 4.1984 1.536 4.1984 7.424 0.1024 9.1648-62.4128 26.3168-75.776 52.6336-77.824 78.336-0.3072 3.7888 3.7376 6.4 7.1168 4.7104 30.976-15.2576 62.8224-31.0784 93.6448-35.4304 5.12-0.7168 7.7824 5.9904 3.5328 8.96-14.08 9.8304-19.8144 21.2992-22.1184 29.6448-1.1776 4.352 3.6864 7.8336 7.4752 5.376 20.8896-13.6192 73.984-44.9536 110.7456-39.2192 0.4096 0.0512 0.8192 0.2048 1.2288 0.3584 6.3488 2.56 63.5392 24.5248 96.7168-6.8608a4.9152 4.9152 0 0 0-1.1776-7.8848c-2.9696-1.4848-5.7344-3.4304-8.1408-5.6832-3.6864-3.4304-9.1648-4.1472-13.568-1.792-4.9152 2.6112-10.7008 4.096-16.896 4.096-17.92 0-32.4608-12.4928-32.4608-27.8528 0-15.36 14.5408-27.8528 32.4608-27.8528 6.1952 0 11.9808 1.4848 16.896 4.096a11.776 11.776 0 0 0 13.568-1.792 34.82112 34.82112 0 0 1 23.9616-9.472c9.216 0 17.5616 3.584 23.808 9.3696 3.5328 3.2768 8.8576 3.9424 13.1584 1.7408 4.864-2.5088 10.496-3.8912 16.5888-3.8912 17.92 0 32.4608 12.4928 32.4608 27.8528 0 15.36-14.5408 27.8528-32.4608 27.8528a36.3008 36.3008 0 0 1-16.2816-3.7888c-4.4544-2.2016-9.8816-1.6896-13.5168 1.6896-2.2528 2.048-4.7616 3.84-7.4752 5.2736-2.8672 1.4848-3.3792 5.4272-1.1776 7.7824 33.4336 35.7376 94.8224 10.2912 101.7344 7.2192 0.4096-0.2048 0.8704-0.3072 1.3312-0.4096 36.7616-5.6832 89.8048 25.6512 110.6944 39.2192 3.7888 2.4576 8.6528-1.024 7.4752-5.376-2.304-8.3456-8.0384-19.8144-22.1184-29.6448-4.2496-2.9696-1.6384-9.6768 3.5328-8.96 30.7712 4.352 62.6688 20.1728 93.6448 35.4304 3.3792 1.6896 7.424-0.9728 7.1168-4.7104-2.048-25.7024-15.4112-52.0192-77.824-78.336-4.096-1.7408-4.096-7.6288 0.1024-9.1648 39.9872-14.6944 81.7664-50.8416 89.4976-87.1936 0.8704-4.1472-3.6352-7.3728-7.3216-5.2736-17.6128 10.1888-30.6176 12.3392-38.6048 12.288-4.1984 0-6.4-5.12-3.5328-8.2432 11.5712-12.7488 41.7792-39.8848 99.4304-53.4016 3.84-1.024 4.9664-6.2976 1.6384-8.7552z" fill="#FE8804" p-id="1527"></path><path d="M625.9712 701.2864c-0.8704 29.44 33.6896 79.9744 50.0224 126.0032 16.4864 46.3872 14.2336 138.8544-156.1088 138.8544s-177.152-78.08-163.584-123.3408c13.8752-46.2336 37.376-129.0752 37.376-129.0752l232.2944-12.4416z" fill="#FE8804" p-id="1528"></path><path d="M418.6112 699.648s11.1616 63.744-1.7408 103.0656c-19.5072 59.4432 1.7408 106.5472 109.2096 103.0656 104.1408-3.3792 95.488-76.1856 94.3104-85.4528-4.608-35.6352-33.28-46.1824-16.2304-116.1728l-185.5488-4.5056z" fill="#EF6054" p-id="1529"></path><path d="M726.1184 470.2208a19.97824 19.97824 0 0 0-24.6272 5.4784c-10.0864 12.8512-37.6832 14.9504-63.1296 15.3088-0.4608 0-1.024 0-1.4336 0.0512-0.2048 0-0.4608 0.0512-0.6656 0.0512-87.7568 9.3184-115.968 81.7664-120.7808 96.2048v0.0512c-0.256 0.8192-0.4608 1.6384-0.6144 2.4576-0.1536-0.8192-0.3584-1.6384-0.6144-2.4576v-0.0512c-4.7616-14.4384-33.024-86.8864-120.7808-96.2048-0.2048 0-0.4608-0.0512-0.6656-0.0512-0.3584 0-0.8192-0.0512-1.1776-0.0512-25.7024-0.3584-53.2992-2.4576-63.3856-15.3088a20.06016 20.06016 0 0 0-24.6272-5.5296 20.0192 20.0192 0 0 0-10.2912 23.04c1.9456 7.168 3.6864 14.5408 5.376 21.7088 10.5472 44.3904 23.6544 99.6864 95.1296 99.6864 29.7472 0 49.408-2.4576 63.7952-4.2496 18.2272-2.2528 22.272-2.4576 28.16 0.768 7.2192 3.9424 16.0256 3.072 22.3232-2.2016 3.6352-3.0208 5.9392-7.1168 6.7584-11.52 0.8192 4.4032 3.1232 8.4992 6.8096 11.5712a19.9168 19.9168 0 0 0 22.3744 2.1504c5.7856-3.1744 9.8816-3.0208 28.1088-0.7168 14.3872 1.792 34.048 4.2496 63.7952 4.2496 71.424 0 84.5824-55.296 95.0784-99.6864 1.6896-7.168 3.4304-14.5408 5.376-21.6576 2.4064-9.1648-1.8944-18.8416-10.2912-23.0912z" fill="#FEF388" p-id="1530"></path><path d="M626.176 554.3936m-41.8304 0a41.8304 41.8304 0 1 0 83.6608 0 41.8304 41.8304 0 1 0-83.6608 0Z" fill="#FFFFFF" p-id="1531"></path><path d="M253.5424 79.2576c0.1536 37.5808 6.2464 143.872 67.5328 196.2496-1.2288-46.08 13.1584-69.5296 30.1056-72.2432 18.2272-2.9184 22.5792 40.0384 31.0272 63.0784 8.4992 23.04 29.7472 44.0832 49.152 70.7584 19.4048 26.6752 24.2688 79.0528 24.2688 137.2672 0 18.176-18.7904 25.4464-36.352-8.8064-17.5616-34.2528-23.9616-67.584-94.8736-123.0848-69.1712-54.0672-116.736-110.4896-98.816-264.704 0.8192-6.9632 6.7072-12.288 13.7216-12.3392h0.3584c7.6288 0 13.824 6.1952 13.8752 13.824zM770.6624 79.2576c-0.1536 37.5808-6.2464 143.872-67.5328 196.2496 1.2288-46.08-13.1584-69.5296-30.1056-72.2432-18.2272-2.9184-22.5792 40.0384-31.0272 63.0784-8.4992 23.04-29.7472 44.0832-49.152 70.7584-19.4048 26.6752-24.2688 79.0528-24.2688 137.2672 0 18.176 18.7904 25.4464 36.352-8.8064 17.5616-34.2528 23.9616-67.584 94.8736-123.0848 69.1712-54.0672 116.736-110.4896 98.816-264.704a13.96736 13.96736 0 0 0-13.7216-12.3392h-0.3584c-7.68 0-13.8752 6.1952-13.8752 13.824z" fill="#FBEE86" p-id="1532"></path><path d="M403.5072 554.3936m-41.8304 0a41.8304 41.8304 0 1 0 83.6608 0 41.8304 41.8304 0 1 0-83.6608 0Z" fill="#FFFFFF" p-id="1533"></path><path d="M577.4848 619.7248c-8.2432 0-15.8208 2.7648-22.016 7.4752-3.3792 2.56-7.7312 1.28-10.496-2.2528-7.3728-9.4208-17.7664-15.3088-29.3376-15.3088-11.9296 0-22.6304 6.2464-30.0032 16.1792-2.6624 3.584-7.1168 4.2496-10.4448 1.6384a36.31616 36.31616 0 0 0-22.4256-7.7824c-20.736 0-37.5296 17.4592-37.5296 39.0144s16.7936 39.0144 37.5296 39.0144c8.3968 0 16.1792-2.8672 22.4256-7.7824 3.328-2.6112 7.7824-1.9456 10.4448 1.6384 7.424 9.9328 18.0736 16.1792 30.0032 16.1792 11.5712 0 21.9648-5.888 29.3376-15.3088 2.7648-3.5328 7.1168-4.8128 10.496-2.2528 6.1952 4.6592 13.7728 7.4752 22.016 7.4752 20.736 0 37.5296-17.4592 37.5296-39.0144-0.0512-21.4528-16.8448-38.912-37.5296-38.912z" fill="#FEB706" p-id="1534"></path><path d="M515.584 736.256c-14.1824 0-27.5968-6.656-37.7856-18.5344-7.68 4.6592-16.1792 7.1168-25.088 7.1168-29.184 0-52.8896-26.7264-52.8896-59.5456s23.7056-59.5456 52.8896-59.5456c8.7552 0 17.408 2.5088 25.088 7.1168 10.1888-11.8784 23.6032-18.5856 37.7856-18.5856 13.9776 0 27.2896 6.5536 37.4272 18.1248a47.7696 47.7696 0 0 1 24.4224-6.7072c29.184 0 52.8896 26.7264 52.8896 59.5456s-23.7056 59.5456-52.8896 59.5456a47.7696 47.7696 0 0 1-24.4224-6.7072c-10.1376 11.6736-23.4496 18.176-37.4272 18.176z m29.9008-23.552z m-65.8944-29.184c0.9216 0 1.8944 0.0512 2.816 0.2048 6.4 0.8704 12.2368 4.6592 16.0256 10.3936 4.7616 7.2704 11.008 11.4176 17.152 11.4176 8.0896 0 13.9264-6.7072 16.6912-10.7008 4.0448-5.8368 10.0352-9.6768 16.4864-10.5472 6.0416-0.768 11.9296 1.024 16.64 5.0688 2.5088 2.1504 6.656 4.7104 11.9808 4.7104 12.032 0 22.1696-13.2096 22.1696-28.8256s-10.1376-28.8256-22.1696-28.8256c-5.3248 0-9.472 2.56-11.9808 4.7616a21.1968 21.1968 0 0 1-16.64 5.0688c-6.4512-0.8192-12.4416-4.6592-16.4864-10.5472-2.7648-3.9936-8.6016-10.7008-16.6912-10.7008-6.144 0-12.3904 4.1472-17.152 11.4176-3.7888 5.7344-9.6256 9.5232-16.0256 10.3936-6.2464 0.8192-12.544-1.1264-17.408-5.4272-2.56-2.2528-6.7584-4.9664-12.2368-4.9664-12.032 0-22.1696 13.2096-22.1696 28.8256s10.1376 28.8256 22.1696 28.8256c5.4784 0 9.6768-2.7136 12.2368-4.9664 4.096-3.584 9.3184-5.5808 14.592-5.5808z m65.8944-65.6896s-0.0512 0 0 0c-0.0512 0 0 0 0 0z" fill="#333B44" p-id="1535"></path><path d="M411.4432 855.7568s-5.3248-61.6448 27.4944-61.5936c34.0992 0.0512 37.5296 105.5744 37.5296 105.5744s-49.2032-5.5808-65.024-43.9808zM616.8064 855.7568s-7.936-65.6896-27.4944-61.5936c-19.5072 4.096-25.6 97.536-25.6 97.536s37.2736 2.4576 53.0944-35.9424zM440.4224 716.3392l42.496 3.4304-23.5008 49.408-17.5104 1.2288zM585.1648 716.3392l-42.496 3.4304 23.5008 49.408 17.5104 1.2288z" fill="#FFFFFF" p-id="1536"></path><path d="M976.9472 541.1328c-32.5632 2.816-61.2864-7.7312-93.7472-25.4464 6.656-2.2528 13.7728-4.3008 21.4528-6.0928a20.3776 20.3776 0 0 0 15.3088-15.7696c1.5872-7.8336-1.3824-15.6672-7.8336-20.4288-13.8752-10.24-21.5552-21.8624-23.3472-35.5328-4.864-36.608 32.4096-83.5584 57.088-114.6368l3.2256-4.0448c6.144-7.7824 5.9392-18.432-0.5632-25.9584a20.1216 20.1216 0 0 0-25.6-4.3008c-27.3408 15.872-48.7424 21.0944-61.7984 15.0528-8.8576-4.096-14.7968-14.0288-17.6128-29.5424-0.4608-2.4576 0.1536-6.7072 0.8704-12.032 1.4848-10.8544 3.5328-25.6512 0.9728-48.7936a20.44416 20.44416 0 0 0-14.2848-17.2544c-4.6592-1.4336-9.6256-1.0752-13.9264 0.768 5.5808-33.024 6.4512-72.5504 0.8192-120.9856-1.7408-14.848-14.2336-26.0096-28.8768-26.0608h-0.7168c-16.128 0-29.3376 13.1072-29.3888 29.2864-0.0512 15.4112-4.096 42.2912-13.5168 71.7312-45.7728-3.4816-84.8384 10.8544-124.7744 46.0288 2.2528-104.3456-94.72-137.0624-95.7952-137.4208-1.536-0.512-3.1232-0.768-4.7104-0.768h-3.5328c-1.5872 0-3.2256 0.256-4.7104 0.768-1.0752 0.3584-98.048 33.0752-95.7952 137.4208-43.4176-38.2464-85.8112-51.8144-137.0112-44.6976-9.728-29.952-13.8752-57.3952-13.9264-73.0624-0.0512-16.1792-13.2096-29.2864-29.7472-29.2864h-0.0512c-14.8992 0.0512-27.392 11.264-29.1328 26.0608-5.5808 47.9232-4.8128 87.1424 0.6144 120.0128-0.3584 0.1024-0.7168 0.1536-1.0752 0.256a20.36736 20.36736 0 0 0-14.2848 17.2544c-2.56 23.1424-0.5632 37.9904 0.9728 48.8448 0.7168 5.3248 1.3312 9.5232 0.8704 12.032-2.816 15.5136-8.7552 25.4464-17.6128 29.5424-13.056 6.0416-34.4576 0.8192-61.7984-15.0528-8.6016-4.9664-19.1488-3.2256-25.6 4.3008-6.5024 7.5264-6.7072 18.176-0.5632 25.9584l3.2256 4.096c24.6784 31.0784 61.952 78.0288 57.088 114.6368-1.792 13.6192-9.4208 25.2416-23.3472 35.5328-6.4512 4.7616-9.4208 12.544-7.8336 20.4288a20.44416 20.44416 0 0 0 15.3088 15.7696c5.9904 1.3824 11.6224 2.9696 16.9984 4.6592-33.4848 18.5856-62.8736 29.7984-96.3584 26.88a15.4112 15.4112 0 0 0-16.64 13.9776 15.4112 15.4112 0 0 0 13.9776 16.64c4.5056 0.4096 8.9088 0.5632 13.2608 0.5632 43.008 0 79.7184-18.3808 121.4976-43.264 0.256 0.1536 0.512 0.256 0.768 0.4096-2.2528 0.6656-4.4544 1.6896-6.4512 3.1232a20.2752 20.2752 0 0 0-7.936 20.6848c7.936 37.2736 42.8544 70.8096 79.0016 90.0096-44.1856 22.3744-64.6144 47.872-67.3792 82.7392-0.5632 7.2192 2.816 14.2848 8.8064 18.3808 6.0928 4.1472 13.9264 4.6592 20.48 1.4336l1.28-0.6144c19.1488-9.4208 38.7584-19.0464 57.8048-25.8048-2.1504 4.2496-3.584 8.2432-4.5568 11.7248-2.2528 8.192 0.7168 16.7424 7.5776 21.76 6.912 5.0688 15.9744 5.3248 23.1424 0.6656 20.6848-13.4656 40.4992-23.6544 57.9072-30.1056-0.256 7.5264-0.7168 16.9472-1.3824 27.3408-11.3152 15.4112-25.1904 28.6208-41.216 38.6048-36.0448 22.4256-76.3904 24.7808-113.6128 6.6048-87.1936-42.5472-44.544-166.6048-42.7008-171.8784 2.816-7.9872-1.3312-16.7424-9.3184-19.6096s-16.7936 1.3312-19.6096 9.3184c-19.0464 53.4528-31.3856 166.0928 58.1632 209.7664 20.6848 10.0864 42.496 15.104 64.256 15.104 27.1872 0 54.272-7.7824 79.104-23.2448 7.0656-4.4032 13.824-9.3696 20.1728-14.7456-1.9456 13.9264-4.4032 27.0848-7.5776 37.6832-9.9328 33.0752-5.5808 64.512 12.288 88.5248 26.9312 36.2496 82.7904 54.6304 166.0416 54.6304 79.2064 0 133.0176-19.3536 160-57.5488 19.456-27.5968 23.4496-65.6384 10.5984-101.8368-2.304-6.5024-4.1472-13.056-5.632-19.5584 5.6832 4.6592 11.6224 8.96 17.8688 12.8512 24.7808 15.4624 51.9168 23.2448 79.104 23.2448 21.76 0 43.6224-5.0176 64.256-15.104 89.5488-43.6736 77.2096-156.3136 58.1632-209.7664a15.3856 15.3856 0 0 0-19.6096-9.3184 15.39072 15.39072 0 0 0-9.3696 19.6096c1.8432 5.2736 44.544 129.3312-42.7008 171.8784-37.2736 18.176-77.6192 15.8208-113.6128-6.6048-15.2576-9.5232-28.5696-21.9136-39.5264-36.352-0.1536-10.8032 0.2048-20.9408 0.6144-30.1056 17.7664 6.4 38.0416 16.7424 59.2896 30.5664 3.4304 2.2016 7.2704 3.328 11.1104 3.328 4.2496 0 8.448-1.3312 12.0832-3.9936a20.1472 20.1472 0 0 0 7.5776-21.76c-0.9728-3.4816-2.4064-7.4752-4.5568-11.7248 19.0464 6.7584 38.656 16.384 57.8048 25.8048l1.28 0.6144c6.5536 3.2256 14.3872 2.7136 20.48-1.4336 6.0416-4.096 9.4208-11.1104 8.8576-18.3808-2.7648-34.8672-23.1936-60.3648-67.3792-82.7392 36.1472-19.2 71.0656-52.736 79.0016-90.0096 0.9728-4.5568 0.3072-9.1648-1.6896-13.1584 34.2528 19.0976 66.0992 32.256 102.5024 32.256 4.352 0 8.7552-0.2048 13.2608-0.5632 8.448-0.7168 14.6944-8.192 13.9776-16.64-0.9728-8.6016-8.3968-14.7968-16.8448-14.1312z m-161.1776-302.08c-0.256 7.68-1.0752 13.824-1.8432 19.2512-1.0752 7.7312-1.9968 14.3872-0.6656 21.7088 5.888 32.3072 22.272 46.08 34.9696 51.9168 14.2848 6.6048 31.488 6.912 51.3536 1.024-23.9616 32.7168-46.2848 71.2704-41.2672 109.0048 2.1504 15.9744 9.0112 30.3104 20.5312 42.8032-10.8544 3.3792-20.5824 7.168-29.44 11.2128-4.0448-2.4576-8.192-4.9664-12.4416-7.5776-19.712-12.0832-42.0864-25.7536-66.7136-38.9632-54.2208-29.0816-102.2976-18.9952-134.8608-3.84 11.9296-23.9104 29.2352-50.176 76.4416-87.04 37.0176-28.928 71.3728-60.5184 91.4944-111.4112 4.1984-2.304 8.3456-4.9152 12.4416-8.0896z m-153.5488-0.8192c1.2288-8.192 3.7376-25.2416 7.1168-27.7504 0.1024 0 0.256-0.0512 0.512-0.0512 0.512 0 1.3312 0.0512 2.5088 0.3584l0.512 0.1536c3.9424 4.4032 3.2256 30.8224 2.6112 54.1184l-0.1024 2.9696a15.36 15.36 0 1 0 25.344 12.0832c9.1648-7.8336 17.4592-16.64 24.9856-25.9584 8.448 2.6112 22.272 5.6832 38.5024 4.5568-17.7664 31.0784-42.9056 53.4016-71.2704 75.5712-62.976 49.2544-78.6432 83.2-92.4672 113.2032-2.6624 5.7856-5.1712 11.264-7.9872 16.7424-3.0208 5.9392-5.7344 9.728-7.8848 12.1344 0.3584-59.0336 9.216-103.3728 25.0368-125.1328 18.8416-25.9072 36.7104-58.7776 46.6432-85.7088 3.072-8.0896 4.5056-17.8176 5.9392-27.2896z m126.6688-144.2304c5.2224 56.064 1.1264 97.6384-9.5744 130.4576-12.9024 4.7104-25.1904 4.5056-34.6624 2.816 4.5568-7.4752 8.6528-15.1552 12.4416-22.8864 4.2496-4.9152 9.4208-10.24 15.7696-15.9232a20.2752 20.2752 0 0 0 6.0416-20.9408c-0.8192-2.8672-2.2016-5.4272-4.0448-7.5776 7.9872-24.9344 12.3904-48.3328 14.0288-65.9456z m-54.8864 87.296c-0.8704 1.9968-1.7408 3.9424-2.6624 5.9392-13.056 15.7184-19.0464 28.8256-21.76 37.5296-1.024 1.4336-1.9968 2.9184-3.072 4.352-0.7168-19.4048-3.7888-33.3312-13.2608-41.472 13.056-4.5056 26.4704-6.5536 40.7552-6.3488zM431.5648 464.2816c-2.816-5.4784-5.3248-10.9568-7.9872-16.7424-13.824-30.0032-29.4912-63.9488-92.4672-113.2032-28.9792-22.6816-54.5792-45.4144-72.3968-77.568 16.0768 3.4816 30.8224 2.304 41.7792 0.1024 6.9632 8.2944 14.4896 16.1792 22.8352 23.2448a15.36 15.36 0 0 0 25.344-12.0832l-0.1024-2.9696c-0.6144-23.3984-1.3312-49.92 2.56-54.0672 0 0 0.1536-0.1024 0.6144-0.2048 1.792-0.4608 2.7648-0.3584 2.816-0.4096 3.584 2.6112 6.0928 19.6608 7.3216 27.8528 1.3824 9.4208 2.8672 19.2 5.8368 27.3408 9.9328 26.9312 27.8016 59.7504 46.6432 85.7088 15.8208 21.76 24.6784 66.0992 25.0368 125.1328-2.048-2.4064-4.7616-6.2464-7.8336-12.1344zM334.4896 184.9856c-7.8848 4.7616-12.2368 12.5952-14.592 23.1936-4.3008-7.7824-10.5472-16.8448-19.6096-26.8288 11.9808-0.4096 23.2448 0.8192 34.2016 3.6352zM235.2128 94.0032c3.1232 33.4336 16.1792 87.5008 44.9536 134.4-11.3664 0.0512-24.6272-2.7136-37.7856-11.8272-8.8576-31.5904-11.9808-70.912-7.168-122.5728z m-77.312 390.8096c11.52-12.4928 18.3808-26.8288 20.5312-42.8032 5.0176-37.7344-17.3056-76.3392-41.2672-109.0048 19.8656 5.888 37.0688 5.5808 51.3536-1.024C201.216 326.0928 217.6 312.32 223.488 280.064c1.3312-7.3216 0.4096-13.9776-0.6656-21.7088-0.3584-2.6624-0.768-5.5296-1.0752-8.6528 20.2752 49.3568 54.1184 80.4352 90.4704 108.8512 45.1584 35.2768 62.9248 60.8768 74.8544 83.9168-32.256-13.2608-77.312-20.0192-127.6928 6.9632-24.6272 13.2096-47.0016 26.88-66.7136 38.9632-3.1744 1.9456-6.2976 3.84-9.3696 5.7344a250.2144 250.2144 0 0 0-25.3952-9.3184zM416.256 672.256c5.2736 10.5984 15.0528 18.9952 27.136 23.0912-4.9664-0.4608-9.728-1.28-14.0288-2.2016-3.4304-3.328-8.2944-5.0688-13.4144-4.1984-0.4096 0.0512-0.7168 0.2048-1.1264 0.3072-0.4096-0.1536-0.8192-0.256-1.1776-0.4096 1.0752-5.4272 1.9456-10.9568 2.6112-16.5888z m198.912-2.7136c0.7168 7.168 1.8432 14.2336 3.2768 21.1968-2.9184 0.9728-6.4 2.048-10.2912 3.072-0.1536-0.0512-0.256-0.1024-0.4096-0.1536-2.8672-0.7168-5.7344-0.512-8.3968 0.3584-0.9728-0.256-1.9968-0.3584-3.072-0.4096a15.5136 15.5136 0 0 0-10.5984 3.84c-2.7136 0.1536-5.4272 0.2048-8.192 0.1536 17.4592-2.5088 31.744-13.4656 37.6832-28.0576z m-89.6 225.3312c-11.5712 0.3584-22.1696 0.1024-31.8464-0.7168-2.304-33.1264-10.1376-88.5248-36.0448-105.2672 4.3008-2.0992 8.6528-5.3248 13.1072-9.6768 15.5136-15.104 30.9248-42.5984 30.5152-65.9968 3.4304-2.2528 6.8096-4.864 9.984-7.8336 1.9968-1.8944 3.584-4.1472 4.6592-6.6048 0.9216 2.048 2.1504 3.9424 3.7376 5.632 1.6896 1.792 3.3792 3.3792 5.1712 4.9152-0.3072 1.1264-0.512 2.2528-0.512 3.4816-0.5632 23.5008 14.9504 51.2 30.5152 66.4064 7.0656 6.912 14.0288 10.9568 20.6848 12.2368-33.3312 13.4656-38.144 74.3936-38.5536 102.656-3.6864 0.4096-7.4752 0.6656-11.4176 0.768z m-94.6688-35.328c2.6112-18.1248 7.8336-36.5568 12.2368-43.4688 6.8608 6.8096 15.1552 34.816 18.8928 69.1712-10.8544-4.096-23.9104-11.7248-31.1296-25.7024z m15.4112-133.2736c7.2704 0.3584 14.848 0.1536 22.4768-0.9728-3.584 11.7248-11.6736 23.9616-18.176 30.8224-1.7408-7.3216-3.2768-18.176-4.3008-29.8496z m144.9984 62.72c0.1024 0.2048 0.1536 0.4096 0.256 0.6144l-0.9728-0.1536c0.2048-0.1536 0.4608-0.3072 0.7168-0.4608z m-34.304-63.2832c7.3728 1.7408 14.848 2.5088 22.1184 2.56-1.024 10.9568-2.5088 20.9408-4.096 27.8528-6.4512-6.8096-14.3872-18.8416-18.0224-30.4128z m10.9056 161.792c1.3312-29.8496 7.936-59.8528 17.2544-66.56 4.352 6.912 9.5744 25.4464 12.1856 43.7248-1.1776 2.304-2.56 4.352-4.0448 6.2464-5.9904 6.912-14.2336 12.3392-24.4736 16.2816l-0.9216 0.3072z m1.9456-220.0576c-3.4304 0-6.7584-0.768-9.6256-2.2016-10.2912-5.1712-22.784-3.4816-31.0272 4.1472-1.28 1.2288-2.7648 2.2528-4.3008 3.072-4.1472 2.2016-7.3216 5.632-9.1136 9.8816a20.4288 20.4288 0 0 0-9.3696-9.7792c-1.7408-0.8704-3.2768-1.9456-4.6592-3.2256a27.20256 27.20256 0 0 0-18.688-7.3728c-4.352 0-8.704 1.024-12.7488 3.1744-2.9696 1.536-6.4 2.3552-9.984 2.3552-9.5232 0-17.5616-5.888-17.5616-12.9024s8.0384-12.9024 17.5616-12.9024c3.584 0 7.0144 0.8192 9.984 2.3552 10.3424 5.4272 22.9888 3.7376 31.4368-4.2496 7.4752-7.0144 19.968-7.0656 27.4432-0.0512a27.10528 27.10528 0 0 0 30.8224 4.1984c2.9184-1.4848 6.2976-2.304 9.8304-2.304 9.5232 0 17.5616 5.888 17.5616 12.9024s-8.0384 12.9024-17.5616 12.9024zM654.7456 906.24c-20.5824 29.1328-67.2256 44.544-134.8608 44.544-71.936 0-120.832-14.592-141.3632-42.24-15.2576-20.5312-12.4928-44.6976-7.5264-61.3376 7.1168-23.6032 10.9568-57.3952 13.056-86.016 8.6016-13.0048 15.7184-27.136 21.1456-42.0864 2.3552 19.5072 5.376 57.856-2.9696 83.2512-11.6736 35.5328-9.3184 64.512 6.8608 86.1184 18.5344 24.7296 54.2208 37.2736 106.1888 37.2736 3.6864 0 7.424-0.0512 11.264-0.2048 20.8384-0.6656 38.912-4.0448 54.1184-9.984 12.9536-4.352 27.6992-12.4928 38.5024-27.904 19.0976-24.6272 17.92-53.3504 16.4352-64.8704-1.792-13.9776-6.5536-24.32-11.1104-34.3552-7.3216-16.0256-14.1824-31.2832-7.8336-65.1776 3.7376-0.9728 7.168-1.9968 10.1888-2.9696 5.632 15.2576 13.056 29.696 22.016 42.9056 0.8704 21.504 4.0448 45.1584 12.5952 69.2224 3.6352 10.0352 13.6704 45.0048-6.7072 73.8304z m99.6864-282.1632a20.19328 20.19328 0 0 0-13.2608 18.5344c-0.2048 8.448 4.7104 16.0256 12.4928 19.3024 39.4752 16.64 56.6272 32.0512 64.1024 46.3872-26.0096-12.4416-52.5824-23.6544-79.2576-27.4432a20.2752 20.2752 0 0 0-21.8112 12.6976c-1.4336 3.6352-1.7408 7.5264-1.0752 11.1616-21.1456-10.24-45.1072-18.944-67.0208-19.8144-2.4576-11.776-3.84-23.9104-3.8912-36.2496a15.36 15.36 0 0 0-15.36-15.3088h-0.0512c-5.8368 0-10.8032 3.328-13.4144 8.0896-6.1952-17.664-24.4736-30.5152-46.08-30.5152-7.5264 0-14.9504 1.5872-21.6064 4.608a50.816 50.816 0 0 0-32.6656-11.9296c-12.1856 0-23.808 4.3008-33.024 12.1856a52.736 52.736 0 0 0-22.2208-4.864c-20.9408 0-38.7584 12.1344-45.4144 28.9792a15.27808 15.27808 0 0 0-12.544-6.5536h-0.0512a15.36 15.36 0 0 0-15.36 15.3088c-0.0512 12.4928-1.4336 24.7296-3.9424 36.608-20.48 1.9456-42.3936 10.0352-61.9008 19.5072 0.6656-3.6352 0.3584-7.4752-1.0752-11.1616a20.2752 20.2752 0 0 0-21.8112-12.6976c-26.6752 3.7888-53.248 15.0016-79.2576 27.4432 7.4752-14.3872 24.6272-29.7472 64.1024-46.3872a20.30592 20.30592 0 0 0 12.4928-19.3024 20.14208 20.14208 0 0 0-13.2608-18.5344c-29.44-10.8544-56.832-32.6144-71.2704-54.9888 9.0624 2.7136 16.384 3.4304 21.9136 3.4304 7.9872-0.0512 15.2064-4.8128 18.432-12.1344 3.2256-7.3728 1.8432-15.9744-3.5328-21.9136-6.656-7.3216-17.408-17.408-33.1264-27.5968 18.4832-11.264 37.632-22.8352 59.136-34.4064 77.2096-41.4208 137.5232 15.1552 141.9264 19.456 1.0752 1.2288 2.0992 2.3552 3.1232 3.4304-4.9152-1.3824-10.0864-2.1504-15.4112-2.1504-31.5392 0-57.1904 25.6512-57.1904 57.1904s25.6512 57.1904 57.1904 57.1904 57.1904-25.6512 57.1904-57.1904c0-17.408-7.8848-33.024-20.224-43.52a26.4448 26.4448 0 0 0 8.8576-0.512c12.6464-3.072 20.7872-14.8992 20.7872-30.1568 0-47.6672-5.376-111.8208-30.9248-146.9952-20.6848-28.4672-35.584-59.0848-42.6496-78.2336-1.8944-5.1712-3.1232-13.3632-4.3008-21.248-0.9728-6.4-1.9968-13.1072-3.5328-19.5584 8.3968 6.912 16.9472 14.8992 25.8048 24.1664a20.1728 20.1728 0 0 0 23.9104 4.096c8.0896-4.096 12.4416-12.8512 10.8544-21.8112-16.384-91.3408 53.4016-124.3648 69.0688-130.56 15.7696 6.2464 85.4528 39.3216 69.0688 130.56-1.5872 8.96 2.7648 17.7152 10.8032 21.8112 8.0896 4.096 17.664 2.4576 23.9104-4.096 3.5328-3.7376 7.0656-7.168 10.496-10.496-0.3072 1.9968-0.6144 3.9936-0.9216 5.9392-1.1776 7.8848-2.3552 16.0768-4.3008 21.248-7.0656 19.1488-21.9648 49.8176-42.6496 78.2336-25.5488 35.1744-30.9248 99.328-30.9248 146.9952 0 15.2576 8.1408 27.0848 20.7872 30.1568 1.536 0.3584 3.5328 0.6656 5.9392 0.6656 3.2256 0 7.1168-0.6144 11.3664-2.4064-13.9776 10.4448-23.0912 27.0336-23.0912 45.7728 0 31.5392 25.6512 57.1904 57.1904 57.1904s57.1904-25.6512 57.1904-57.1904-25.6512-57.1904-57.1904-57.1904c-8.96 0-17.408 2.1504-24.9856 5.8368 0.9216-0.768 1.8432-1.5872 2.816-2.4576 3.5328-0.256 7.0144-1.6896 9.728-4.4032 0.6144-0.6144 63.0272-62.0032 142.08-19.6096 22.9888 12.3392 43.264 24.6784 62.8224 36.6592-13.8752 9.3696-23.552 18.5344-29.696 25.344a20.46976 20.46976 0 0 0-3.5328 21.9136 20.30592 20.30592 0 0 0 18.432 12.1344c5.6832 0 12.8512-0.7168 21.8624-3.4304-14.2336 22.1696-41.6256 43.9296-71.0656 54.784z m-324.4544-69.6832c0 14.592-11.8784 26.4704-26.4704 26.4704s-26.4704-11.8784-26.4704-26.4704 11.8784-26.4704 26.4704-26.4704 26.4704 11.8784 26.4704 26.4704z m169.6768 0c0-14.592 11.8784-26.4704 26.4704-26.4704s26.4704 11.8784 26.4704 26.4704-11.8784 26.4704-26.4704 26.4704-26.4704-11.8784-26.4704-26.4704z" fill="#333B44" p-id="1537"></path></svg>