<?xml version="1.0" standalone="no"?><!DOCTYPE svg PUBLIC "-//W3C//DTD SVG 1.1//EN" "http://www.w3.org/Graphics/SVG/1.1/DTD/svg11.dtd"><svg t="1621494726573" class="icon" viewBox="0 0 1024 1024" version="1.1" xmlns="http://www.w3.org/2000/svg" p-id="1674" xmlns:xlink="http://www.w3.org/1999/xlink" width="200" height="200"><defs><style type="text/css"></style></defs><path d="M598.0672 924.3648c-0.512 2.56 2.304 4.5056 4.5056 3.072 33.3824-21.7088 51.0464-62.1056 55.7056-96.3584 4.8128-35.5328 32.1536-5.2224 49.408 48.5376 0.5632 1.7408 2.6112 2.6112 4.1984 1.7408 76.032-41.5232 107.4688-145.8688 122.7776-184.576 0.8704-2.2016 3.8912-2.5088 5.1712-0.512 5.4784 8.5504 10.752 22.3232 14.7968 55.5008 0.3072 2.3552 3.2256 3.4304 4.9664 1.792 93.3376-89.7024 45.312-206.2336 34.816-228.5568-0.9728-2.048 0.6144-4.3008 2.8672-4.1472 5.7344 0.3584 16.896 3.1232 34.8672 15.7696 1.8944 1.3312 4.608-0.0512 4.6592-2.3552 4.9152-278.016-128.6144-374.6816-184.4224-416.256-48.5376-36.1472-98.7648-21.5552-111.5136-16.896a2.91328 2.91328 0 0 1-3.84-2.1504l-6.5536-30.3616a3.05664 3.05664 0 0 0-1.792-2.1504c-107.8272-42.8544-190.1568-5.4272-201.0624-0.0512-0.8192 0.4096-1.3312 1.1264-1.536 1.9968l-6.6048 30.5664c-0.3584 1.7408-2.1504 2.7648-3.84 2.1504-12.7488-4.6592-62.976-19.2512-111.5136 16.896-55.8592 41.5744-189.3888 138.24-184.4224 416.256 0.0512 2.3552 2.7136 3.7376 4.6592 2.3552 17.9712-12.6464 29.1328-15.4112 34.8672-15.7696 2.2528-0.1536 3.84 2.0992 2.8672 4.1472-10.4448 22.272-58.4704 138.8544 34.816 228.5568 1.7408 1.6384 4.6592 0.6144 4.9664-1.792 4.0448-33.1264 9.3184-46.9504 14.7968-55.5008 1.28-1.9968 4.3008-1.7408 5.1712 0.512 15.3088 38.7072 46.7456 143.0528 122.7776 184.576 1.6384 0.8704 3.6352 0 4.1984-1.7408 17.2544-53.76 44.5952-84.0704 49.408-48.5376 4.9152 36.3008 24.4736 79.4112 61.7472 99.9936 0 0 30.0544 14.1312 48.896 46.6944 1.024 1.792 3.4816 2.048 4.8128 0.4608 26.5216-32.768 65.7408-79.9232 81.4592-70.2976 0.5632 0.3072 0.9216 0.9216 1.1776 1.4848 1.536 3.7888 3.7376 4.8128 1.7408 14.9504z" fill="#F39800" p-id="1675"></path><path d="M634.4192 656.5376c89.5488-21.5552 92.16-95.4368 91.4944-115.712-0.6656-20.2752 3.9424-52.9408 28.1088-81.0496s28.7744-80.7424 22.8864-104.7552c7.8336-0.9728 34.816-15.2064 42.6496-43.6224 7.8336-28.416-7.8336-82.3808-47.5648-91.648-39.7312-9.3184-55.8592-0.512-82.3808 28.928-46.08-27.4432-99.0208-8.8064-99.0208-8.8064-3.4304 1.0752-8.96 4.1984-24.6784 11.52-22.6816 10.5472-62.2592 2.7136-73.0624-1.7408-10.8032-4.4032-29.9008-9.7792-29.9008-9.7792s-52.9408-18.6368-99.0208 8.8064c-26.4704-29.3888-42.6496-38.2464-82.3808-28.928s-55.3984 63.232-47.5648 91.648c7.8336 28.416 34.816 42.6496 42.6496 43.6224-5.888 24.0128-1.3312 76.6464 22.8864 104.7552s28.7744 60.7744 28.1088 81.0496c-0.6656 20.2752 1.9456 94.1056 91.4944 115.712 0 0 11.2128 82.9952 113.3056 82.9952s101.9904-82.9952 101.9904-82.9952z" fill="#F2B655" p-id="1676"></path><path d="M532.48 754.944c-91.2896 0-118.6816-60.9792-126.0544-85.8624-90.112-26.5728-94.8736-104.704-94.1056-128.6656 0.4096-12.2368-1.1776-43.5712-24.4224-70.5536-23.7568-27.5968-31.0272-74.496-28.3136-104.9088-15.0528-7.936-33.536-24.4736-40.3968-49.408-6.0416-21.9136-1.024-51.9168 12.544-74.7008 11.3152-19.0976 27.3408-31.5392 46.336-35.9936 42.4448-9.984 64.3584-0.3072 89.088 24.8832 46.4896-21.2992 94.464-6.4512 100.352-4.4544 2.9696 0.8704 20.48 5.888 31.1296 10.24 8.9088 3.6352 43.5712 9.984 60.7232 1.9968 6.656-3.072 11.4688-5.4272 15.0528-7.168 5.3248-2.6112 8.3456-4.0448 11.3152-5.0176 4.7616-1.6384 53.4528-17.2032 100.608 4.4032 24.7296-25.1392 46.6432-34.816 89.088-24.8832 18.944 4.4544 34.9696 16.896 46.336 35.9936 13.5168 22.784 18.5856 52.8384 12.544 74.7008-6.8608 24.9344-25.2928 41.4208-40.3968 49.408 2.7648 30.4128-4.5568 77.312-28.3136 104.9088-23.1936 26.9824-24.7808 58.3168-24.4224 70.5536 0.768 23.808-3.8912 101.2736-92.672 128.256-2.2528 13.568-8.704 36.096-27.4432 54.8864-20.736 20.7872-50.5856 31.3856-88.576 31.3856zM307.4048 231.5776c-6.2976 0-13.5168 1.0752-22.3232 3.1744-13.4656 3.1744-22.0672 13.568-26.9312 21.76-10.4448 17.664-12.5952 38.9632-9.3184 50.8416 5.6832 20.5824 25.344 31.4368 30.1056 32.512 4.352 0.5632 8.0896 2.8672 10.5472 6.5024 2.5088 3.6352 3.1232 8.0896 2.0992 12.3392-5.1712 21.1456 0 68.3008 19.6096 91.0848 30.2592 35.1232 32.3072 75.7248 31.7952 91.5456-0.768 24.1664 5.4272 82.3808 79.7696 100.2496 6.144 1.4848 10.8032 6.6048 11.6224 12.9024 0.4096 2.7648 11.264 69.6832 98.0992 69.6832 83.4048 0 86.4768-60.7744 86.5792-67.7376 0.0512-7.0144 4.9152-13.2096 11.776-14.848 74.3424-17.92 80.5376-76.0832 79.7696-100.2496-0.512-15.8208 1.5872-56.4224 31.7952-91.5456 19.6096-22.784 24.7808-69.888 19.6096-91.0848-1.024-4.2496-0.2048-8.7552 2.2528-12.3904a15.36 15.36 0 0 1 10.752-6.5024c4.4032-1.024 24.064-11.8784 29.7472-32.4608 3.2768-11.9296 1.1264-33.2288-9.3184-50.8416-4.864-8.192-13.4656-18.6368-26.9312-21.76-32.9728-7.7312-44.032-1.792-67.4304 24.2176a15.31904 15.31904 0 0 1-19.2512 2.9184c-39.4752-23.5008-85.6064-7.68-86.0672-7.5264-0.2048 0.0512-0.4096 0.1536-0.5632 0.2048-0.9216 0.3072-3.9424 1.792-7.2192 3.3792-3.6864 1.792-8.6528 4.1984-15.5648 7.424-28.8768 13.4144-73.2672 3.4816-85.3504-1.4336-9.8304-4.0448-28.0576-9.1648-28.2624-9.216l-0.9216-0.3072c-0.4096-0.1536-46.9504-15.7696-86.0672 7.5264-6.2976 3.7376-14.3872 2.56-19.2512-2.9184-17.2032-19.1488-27.7504-27.4432-45.1584-27.4432z" fill="#333B44" p-id="1677"></path><path d="M393.472 387.2256c-4.4032-4.608-0.256-12.1344 5.9904-10.9056 24.32 4.8128 62.1056 13.4144 64.1536 21.4016 2.4064 9.3184-0.3584 31.2832-5.9904 48.384-1.6384 5.0176-8.3968 5.9904-11.4688 1.6384-12.9536-18.2272-37.1712-44.3392-52.6848-60.5184zM674.0992 387.2256c4.4032-4.608 0.256-12.1344-5.9904-10.9056-24.32 4.8128-62.1056 13.4144-64.1536 21.4016-2.4064 9.3184 0.3584 31.2832 5.9904 48.384 1.6384 5.0176 8.3968 5.9904 11.4688 1.6384 12.9024-18.2272 37.1712-44.3392 52.6848-60.5184z" fill="#FFFFFF" p-id="1678"></path><path d="M451.4304 465.92c-7.0656 0-13.6704-3.3792-17.8176-9.216-9.3696-13.2608-27.5968-34.1504-51.2512-58.88a21.76 21.76 0 0 1-3.3792-25.6512c4.608-8.3968 14.0288-12.8512 23.4496-10.9568 65.9968 13.056 73.3184 22.1184 76.032 32.6144 3.584 13.8752-0.4096 39.2192-6.2464 57.0368a21.6832 21.6832 0 0 1-17.4592 14.7456c-1.1264 0.256-2.2016 0.3072-3.328 0.3072z m7.2704-26.9824z m-34.56-41.4208c8.0384 8.8064 16.128 18.0224 23.1424 26.624 1.3824-7.5776 1.9456-14.3872 1.8432-18.7392-3.328-1.5872-10.3936-4.2496-24.9856-7.8848z m-19.6096-20.9408zM616.1408 465.92c-1.0752 0-2.2016-0.1024-3.328-0.256a21.6832 21.6832 0 0 1-17.4592-14.7456c-5.8368-17.8176-9.8304-43.1616-6.2464-57.0368 2.7136-10.496 10.0352-19.5584 76.032-32.6144 9.3696-1.8944 18.8416 2.5088 23.4496 10.9568 4.608 8.3968 3.2256 18.688-3.3792 25.6512-13.6704 14.2848-38.5536 40.9088-51.2512 58.8288a21.84704 21.84704 0 0 1-17.8176 9.216z m2.304-60.5696c-0.1024 4.352 0.4608 11.1616 1.8432 18.7392 7.0656-8.6016 15.1552-17.8176 23.1424-26.624-14.592 3.6864-21.6576 6.3488-24.9856 7.8848z m55.6544-18.1248z m-11.0592-10.6496zM526.7968 699.8528c-34.6624 0-64.256-15.9232-73.6768-39.68-2.0992-5.3248-1.4336-11.3664 1.7408-16.128a17.4592 17.4592 0 0 1 14.3872-7.7312c21.6064-0.1536 30.5664-9.9328 30.8224-33.8432 0.3072-27.7504-32.7168-39.6288-42.8544-42.6496a17.54112 17.54112 0 0 1-11.776-11.5712c-1.7408-5.5296-0.6144-11.5712 3.0208-16.128l0.0512-0.0512c18.5344-23.04 48.5888-26.2144 78.2848-26.2144h5.3248c25.1392-0.1024 53.8624-0.256 75.264 25.7536 3.9424 4.7616 5.0176 11.3664 2.8672 17.152a17.59744 17.59744 0 0 1-13.6704 11.1616c-18.1248 2.9184-38.2464 17.6128-39.5776 43.008-0.7168 13.3632 2.9696 29.6448 38.0928 37.0176 5.5808 1.1776 10.24 4.9664 12.4928 10.1888 2.2528 5.1712 1.8944 11.1104-1.024 15.9232-13.4656 22.4256-40.2944 33.792-79.7696 33.792z m-30.8224-37.5296c7.8848 4.0448 18.432 6.8096 30.8224 6.8096 16.2816 0 29.184-2.1504 38.6048-6.4512-22.8864-10.1376-32.9216-25.5488-36.864-39.8848-4.608 19.3536-15.7696 32.8704-32.5632 39.5264z m-5.888-121.856c17.8688 9.9328 33.1776 25.0368 38.6048 45.3632 5.2224-19.9168 18.2784-36.6592 36.0448-46.7968-8.7552-2.3552-19.3536-2.5088-32.4608-2.4576h-5.4784c-13.1072 0.0512-26.112 0.6656-36.7104 3.8912z m93.5424 10.6496c0.0512 0 0.0512 0 0 0 0.0512 0 0.0512 0 0 0z" fill="#333B44" p-id="1679"></path><path d="M511.488 994.6624c-0.4608 0-0.9216 0-1.4336-0.0512a18.37056 18.37056 0 0 1-14.4384-9.1136c-16.0256-27.7504-41.9328-40.3968-42.1888-40.4992-0.256-0.1536-0.5632-0.3072-0.8192-0.4096-41.1648-22.7328-62.1568-68.2496-68.608-105.3696-5.7344 8.448-13.4656 23.1936-20.48 45.2096a18.29888 18.29888 0 0 1-10.7008 11.4688c-5.0688 2.048-10.752 1.6896-15.5136-0.9216-64.4096-35.1744-98.048-109.6704-117.3504-159.7952-0.9728 5.2736-1.8944 11.4176-2.7648 18.5856a18.2016 18.2016 0 0 1-12.032 15.0016c-6.6048 2.3552-13.7728 0.8192-18.7904-4.0448-79.36-76.288-64.3584-170.0864-48.896-218.3168-1.3312 0.8704-2.7136 1.8432-4.1984 2.8672a18.34496 18.34496 0 0 1-28.8768-14.6944C99.328 251.1872 235.3152 150.016 293.4272 106.8032l1.5872-1.1776c43.6224-32.4608 88.2688-28.7232 112.3328-23.04l3.7888-17.5104a18.2784 18.2784 0 0 1 9.728-12.544c15.9232-7.8848 101.2736-45.1072 213.5552-0.4608 5.6832 2.2016 9.8816 7.168 11.1616 13.2096l3.7376 17.2544c24.064-5.6832 68.7104-9.4208 112.3328 23.04l1.5872 1.1776c58.0608 43.2128 194.0992 144.3328 189.0816 427.6736a18.18624 18.18624 0 0 1-10.0352 15.9744c-6.0416 3.072-13.2608 2.56-18.7904-1.3312-1.4848-1.024-2.8672-1.9968-4.1984-2.8672 15.4624 48.2304 30.464 142.0288-48.896 218.3168a18.176 18.176 0 0 1-18.7904 4.0448 18.11968 18.11968 0 0 1-12.032-15.0016c-0.8704-7.168-1.792-13.312-2.7648-18.5856-19.3536 50.1248-52.9408 124.6208-117.4016 159.7952-4.7616 2.6112-10.3936 2.9696-15.5136 0.9216-5.12-2.048-9.0112-6.1952-10.7008-11.4688-7.0656-21.9648-14.7456-36.7104-20.48-45.2096-7.3216 43.1104-30.1056 80.64-61.5936 101.1712-6.144 4.0448-14.08 3.9424-20.1728-0.1536-4.8128-3.2256-7.68-8.3968-8.0896-13.9776-11.4176 8.3456-30.5664 29.0304-57.0368 61.7472-3.6352 4.4032-8.8576 6.8608-14.336 6.8608z m-44.3904-77.2096c3.9936 1.9456 26.5216 13.824 45.3632 38.0928 42.4448-51.1488 68.9664-74.0352 90.7264-60.7232 2.7136 1.6384 4.9152 3.9936 6.4512 6.8608 19.9168-20.5824 30.2592-49.6128 33.3824-72.704 3.1744-23.3984 15.616-27.9552 22.784-28.5696 23.6032-2.1504 41.5232 33.8944 51.3024 59.648 54.3744-37.7856 82.1248-112.4352 97.5872-153.9072 2.0992-5.6832 3.9936-10.752 5.6832-15.0528 2.56-6.4 8.3968-10.8032 15.2576-11.4688 6.8096-0.6144 13.4144 2.56 17.152 8.3456 5.5808 8.7552 9.728 20.0704 13.0048 35.9424 62.5152-79.2064 23.7568-173.1584 14.7456-192.4096-2.7136-5.8368-2.2016-12.7488 1.4336-18.0224a18.2784 18.2784 0 0 1 16.3328-7.9872c6.9632 0.4096 14.7456 2.7136 23.296 6.8608-2.2528-251.0848-123.9552-341.6064-176.7936-380.8768l-1.5872-1.1776c-41.984-31.232-84.9408-19.2-97.1264-14.7968-4.9664 1.792-10.4448 1.3824-15.0528-1.1776a18.4832 18.4832 0 0 1-9.0624-12.1856l-5.12-23.8592c-88.0128-32.6656-156.8256-9.2672-177.1008-0.6144l-5.2736 24.4736a18.32448 18.32448 0 0 1-9.0624 12.1856c-4.608 2.56-10.0864 2.9696-15.0528 1.1776-12.1856-4.4032-55.1424-16.4352-97.1264 14.7968l-1.5872 1.1776c-52.7872 39.2704-174.5408 129.792-176.7936 380.8768 8.5504-4.1472 16.3328-6.4 23.296-6.8608 6.4512-0.4096 12.6976 2.6624 16.2816 7.9872 3.584 5.2736 4.1472 12.1856 1.4336 18.0224-9.0624 19.3024-47.7696 113.2544 14.7456 192.4608 3.2768-15.872 7.424-27.1872 13.0048-35.9424a18.11968 18.11968 0 0 1 17.152-8.3456c6.8608 0.6656 12.6976 5.0688 15.2576 11.4688 1.6896 4.3008 3.584 9.3696 5.7344 15.0528 15.4112 41.472 43.2128 116.1216 97.5872 153.9072 9.7792-25.7536 27.6992-61.7984 51.3024-59.648 7.168 0.6144 19.6096 5.1712 22.784 28.5696 4.1984 30.6176 20.4288 69.888 53.6576 88.4224z m146.0736 9.8304s0-0.0512 0 0c0-0.0512 0 0 0 0z m-31.0272-11.9808s0 0.0512 0 0c0 0.0512 0 0 0 0z m122.4192-47.4112c-0.0512 0-0.0512 0 0 0-0.0512 0-0.0512 0 0 0z m-352.5632 0z m29.7472-40.2432z m293.0688 0z m-51.8656-747.008c0.0512 0 0.1024 0.0512 0.1024 0.0512s-0.0512 0-0.1024-0.0512z m-7.4752-8.8576v0.0512-0.0512z" fill="#333B44" p-id="1680"></path></svg>