<?xml version="1.0" standalone="no"?><!DOCTYPE svg PUBLIC "-//W3C//DTD SVG 1.1//EN" "http://www.w3.org/Graphics/SVG/1.1/DTD/svg11.dtd"><svg t="1621494704572" class="icon" viewBox="0 0 1024 1024" version="1.1" xmlns="http://www.w3.org/2000/svg" p-id="1228" xmlns:xlink="http://www.w3.org/1999/xlink" width="200" height="200"><defs><style type="text/css"></style></defs><path d="M611.584 868.5568c3.3792 12.8 12.8 41.1136 33.9456 46.7968 1.3824 0.3584 2.7648-0.7168 2.8672-2.1504 3.6352-50.7904 12.3904-71.0656 39.0144-102.5536 1.0752-1.28 3.1232-1.024 3.84 0.512 11.8784 25.856 23.552 42.5472 42.2912 52.8384 1.6896 0.9216 3.6864-0.4096 3.3792-2.304-7.2704-43.8272 26.7264-99.1744 35.9936-107.776 1.1264-1.024 2.8672-0.7168 3.5328 0.6656 4.096 8.448 18.0224 33.9968 38.8096 40.0384 1.6384 0.4608 3.1744-0.8704 2.9184-2.56-4.4544-28.5696 3.84-59.136 12.544-117.1968 0.3072-2.048 2.9696-2.7136 4.096-1.024 7.4752 11.0592 24.7808 27.4944 51.968 33.536 1.8432 0.4096 3.328-1.536 2.4576-3.2256-16.2304-31.744-3.584-101.0688-0.512-116.3776 0.3072-1.536 2.048-2.304 3.3792-1.4336 5.2224 3.328 17.152 12.3904 28.9792 31.9488 0.9728 1.6384 3.4816 1.4848 4.1472-0.3072 18.432-49.9712 8.448-110.7968-18.7904-155.1872-0.8192-1.3824-0.0512-3.072 1.4848-3.3792 29.184-6.1952 50.6368-36.3008 49.8688-68.1472-0.0512-1.536-1.6384-2.56-3.072-2.0992-84.1728 27.136-82.9952-29.5424-82.9952-32.768-4.6592-107.1104-43.8784-131.328-72.0896-163.7376a2.31936 2.31936 0 0 1-0.4096-2.3552c12.032-29.696 18.5344-90.9312-2.048-126.72a2.29888 2.29888 0 0 0-4.2496 0.7168c-11.5712 58.112-45.0048 72.9088-72.192 76.4928a2.13504 2.13504 0 0 1-1.6384-0.4608c-99.84-74.4448-201.1648-10.0352-201.1648-10.0352s-4.0448 3.4816-10.1888 0c0 0-101.376-64.4096-201.1648 10.0352-0.4608 0.3584-1.0752 0.512-1.6384 0.4608-27.2384-3.6352-60.6208-18.432-72.192-76.4928a2.29888 2.29888 0 0 0-4.2496-0.7168c-20.5312 35.7376-14.0288 96.9728-2.048 126.72 0.3072 0.8192 0.1536 1.6896-0.4096 2.3552C197.9392 225.0752 158.72 249.2928 154.0608 356.4032c0 3.2256 1.1264 59.904-82.9952 32.768-1.4336-0.4608-3.0208 0.5632-3.072 2.0992-0.768 31.8464 20.6848 61.952 49.8688 68.1472 1.5872 0.3584 2.3552 2.048 1.4848 3.3792-27.2896 44.3904-37.2736 105.216-18.7904 155.1872 0.6656 1.792 3.1744 1.9456 4.1472 0.3072 11.776-19.5584 23.7568-28.6208 28.9792-31.9488 1.3312-0.8704 3.072-0.1024 3.3792 1.4336 3.072 15.3088 15.7184 84.5824-0.512 116.3776-0.8704 1.6896 0.6144 3.6352 2.4576 3.2256 27.1872-5.9904 44.4928-22.4768 51.968-33.536 1.1264-1.6896 3.84-1.024 4.096 1.024 8.7552 58.0608 1.6896 98.8672-2.7648 127.4368-0.256 1.6896 1.28 3.0208 2.9184 2.56 20.7872-6.0416 50.0224-21.4016 54.1184-29.7984 0.6656-1.3824 2.4064-1.6896 3.5328-0.6656 9.2672 8.6016 43.2128 43.52 35.9936 87.3472-0.3072 1.8944 1.7408 3.2256 3.3792 2.304 18.7392-10.2912 40.6016-16.7936 52.5312-42.6496 0.7168-1.536 2.7648-1.8432 3.84-0.512 26.624 31.5392 40.4992 26.2656 44.1344 77.056 0.1024 1.4336 1.4336 2.5088 2.816 2.0992 21.1968-5.632 62.5664-12.7488 65.9456-25.5488 0 0 36.4032 45.9264 75.9296 74.4448 6.144 4.4032 14.7456 0.9216 16.0256-6.5024 9.5232-55.7568 58.112-73.8816 58.112-73.8816z" fill="#F2B655" p-id="1229"></path><path d="M226.0992 192.6656c0.5632-0.6656 0.7168-1.536 0.4096-2.3552-12.032-29.696-18.5344-90.9312 2.048-126.72 0 0-143.2064 72.448-67.1232 234.2912 13.6192-59.392 42.5472-79.7696 64.6656-105.216zM797.2864 63.6416c20.5312 35.7376 14.0288 96.9728 2.048 126.72-0.3072 0.8192-0.1536 1.6896 0.4096 2.3552 22.4256 25.7536 51.7632 46.3872 65.2288 107.52 64.8192-165.8368-47.3088-225.6384-68.352-237.2096 0.2048 0.1024 0.512 0.3072 0.6656 0.6144zM795.9552 62.6176c-0.0512-0.0512-0.1024-0.0512-0.1536-0.1024v0.0512c0.0512 0.0512 0.1024 0.0512 0.1536 0.0512z" fill="#FFFFFF" p-id="1230"></path><path d="M973.2096 390.8608a17.68448 17.68448 0 0 0-7.424-13.8752c-4.5568-3.2256-10.4448-4.096-15.7184-2.4064-25.344 8.1408-44.5952 8.7552-54.3232 1.6384-8.0384-5.8368-8.6016-16.4864-8.6016-19.7632v-0.6656c-0.9216-20.7872-3.1232-38.656-6.2976-54.272 42.0864-111.616 15.4624-200.6528-75.264-251.0336a17.69984 17.69984 0 0 0-27.648 10.9056c-9.5232 47.7696-34.304 59.7504-54.1184 63.488-95.5392-67.5328-192.4608-19.5584-210.944-9.2672-18.5344-10.3424-115.4048-58.2656-210.944 9.2672-19.8144-3.7376-44.5952-15.7184-54.1184-63.488a17.53088 17.53088 0 0 0-14.4896-14.0288 17.4592 17.4592 0 0 0-14.1824 3.8912c-19.2 10.9568-144.9984 90.2656-73.8304 248.4224-3.3792 16.0256-5.6832 34.5088-6.656 56.064v0.8704c0 3.1232-0.5632 13.7216-8.6016 19.6096-9.728 7.1168-29.0304 6.5024-54.3232-1.6384a17.87392 17.87392 0 0 0-15.7184 2.4064c-4.5056 3.1744-7.2704 8.3968-7.424 13.9264-0.8192 33.6896 18.0224 64.512 45.7728 77.9776-24.576 48.5888-29.5936 107.5712-12.288 154.4704a17.3824 17.3824 0 0 0 14.848 11.4176c6.7072 0.6144 13.3632-2.6624 16.8448-8.4992 2.7648-4.608 5.5296-8.4992 8.1408-11.8272 4.5568 32.768 5.0688 66.7648-3.1232 82.7392a17.8176 17.8176 0 0 0 1.7408 18.8416 17.5616 17.5616 0 0 0 17.7152 6.4c17.3568-3.84 30.72-11.1104 40.6016-18.5344 3.0208 39.936-1.6896 69.9392-5.2736 92.928l-0.512 3.1232c-0.9216 5.9904 1.2288 11.9808 5.7856 15.9744 4.5568 3.9936 10.752 5.376 16.5888 3.6864 10.4448-3.0208 35.7888-12.9024 51.6096-24.832 11.1104 13.0048 27.0848 37.12 22.5792 64.4608-1.1264 6.7072 1.6384 13.2608 7.168 17.2032 5.5808 3.9424 12.7488 4.352 18.7392 1.0752 3.2256-1.7408 6.5024-3.3792 9.8304-5.0688 12.6976-6.2976 27.7504-13.7728 39.4752-28.6208 3.072 3.0208 5.888 5.632 8.448 7.9872 13.0048 12.032 17.8688 16.4864 20.0704 47.2064 0.3584 5.3248 3.072 10.0864 7.3728 13.2096 4.2496 3.072 9.6256 4.0448 14.6944 2.6624 3.7888-1.024 8.2432-2.048 13.056-3.2256 20.0192-4.7616 36.2496-9.0112 47.4624-15.0528 14.0288 16.128 40.2432 44.3904 68.4544 64.768 4.4544 3.2256 9.6768 4.864 14.9504 4.864 3.2768 0 6.5536-0.6144 9.6768-1.8944 8.192-3.3792 13.9776-10.5984 15.5136-19.3536 4.9152-28.6208 21.8624-45.4144 34.3552-54.1696 7.3216 17.4592 19.2512 34.2016 38.656 39.3728 5.0688 1.3824 10.4448 0.3584 14.6944-2.6624 4.352-3.072 7.0144-7.8848 7.424-13.2096 2.816-39.168 8.4992-57.6 23.04-78.0288 9.216 16.2304 21.1968 31.1808 39.424 41.216 5.9904 3.2768 13.1584 2.9184 18.7392-1.0752a17.41312 17.41312 0 0 0 7.168-17.2032c-4.4032-26.624 10.2912-60.3648 21.3504-79.5648 8.4992 11.9808 21.0432 24.9856 37.5296 29.7472a17.64352 17.64352 0 0 0 22.3744-19.712c-2.9184-18.8928 0.7168-40.448 6.1952-73.1136 0.7168-4.3008 1.4848-8.8064 2.2528-13.568 9.9328 7.68 23.6544 15.36 41.6768 19.3536 6.6048 1.4336 13.568-1.0752 17.7152-6.4 4.1472-5.376 4.864-12.7488 1.7408-18.7904-8.192-15.9744-7.68-49.9712-3.1232-82.7392 2.6112 3.2768 5.376 7.2192 8.1408 11.8272a17.4848 17.4848 0 0 0 16.8448 8.448c6.8096-0.6656 12.4928-5.0176 14.848-11.4176 17.3056-46.8992 12.3392-105.8816-12.288-154.4704 27.904-13.4656 46.7456-44.288 45.9264-77.9776zM864.256 250.6752c-3.8912-8.0384-8.1408-15.0528-12.544-21.4528-0.0512-0.1024-0.1024-0.1536-0.1536-0.256-1.3824-1.9968-2.7648-3.9424-4.1472-5.7856l-1.4336-1.8944c-0.9728-1.2288-1.8944-2.4576-2.8672-3.6864-0.9728-1.2288-1.9968-2.4576-2.9696-3.6352-0.4608-0.512-0.9216-1.0752-1.3312-1.5872-1.536-1.792-3.072-3.5328-4.6592-5.2736-0.1024-0.1024-0.2048-0.256-0.3072-0.3584-3.5328-3.8912-7.0144-7.5264-10.3936-11.1104-2.4064-2.56-4.7616-5.0176-7.0144-7.424 0.8192-2.5088 1.5872-5.2224 2.3552-7.9872 0.2048-0.8192 0.4096-1.6896 0.6656-2.5088 0.512-2.0992 1.024-4.2496 1.536-6.4512 0.2048-0.9216 0.4096-1.8432 0.6144-2.816 0.5632-2.7136 1.0752-5.4784 1.536-8.3456 0.0512-0.4096 0.1536-0.768 0.2048-1.1776 0.512-3.2768 0.9216-6.6048 1.3312-9.984 0.1024-0.9216 0.1536-1.8432 0.256-2.7136 0.256-2.56 0.4608-5.1712 0.6144-7.7824 0.0512-1.0752 0.1536-2.1504 0.2048-3.2768 0.1536-2.816 0.2048-5.6832 0.256-8.5504 0-0.7168 0.0512-1.4336 0.0512-2.2016 0-3.5328-0.1024-7.1168-0.3072-10.6496-0.0512-0.8704-0.1536-1.792-0.2048-2.6624-0.2048-2.7136-0.4096-5.376-0.7168-8.0896l-0.1536-1.792c40.0384 36.5568 53.504 87.1936 39.5776 149.4528z m-703.488 1.6384c-19.8656-73.9328 12.1856-122.7264 40.2944-149.5552-0.0512 0.4096-0.0512 0.8192-0.1024 1.2288-0.3584 3.2768-0.6144 6.5536-0.8192 9.8304 0 0.2048-0.0512 0.4096-0.0512 0.6144-0.1536 3.584-0.256 7.2192-0.2048 10.8032 0 0.8704 0.0512 1.6896 0.0512 2.56 0.0512 2.7648 0.1536 5.4784 0.256 8.192l0.1536 2.8672c0.2048 2.9184 0.4608 5.7344 0.7168 8.6016l0.1536 1.7408c0.4096 3.4816 0.8704 6.8608 1.3824 10.1888 0.0512 0.4096 0.1536 0.768 0.2048 1.1264 0.4608 2.8672 0.9728 5.632 1.536 8.3456 0.1536 0.8192 0.3584 1.5872 0.512 2.4064 0.512 2.304 1.024 4.608 1.5872 6.7584 0.2048 0.7168 0.3584 1.4848 0.5632 2.2016 0.768 2.7648 1.536 5.4784 2.3552 8.0384-1.6384 1.792-3.4304 3.6352-5.1712 5.4784-0.6144 0.6656-1.2288 1.28-1.8432 1.9456l-5.2736 5.5808c0 0.0512-0.0512 0.0512-0.0512 0.1024-1.6384 1.7408-3.328 3.584-5.0176 5.4272l-0.9216 1.0752c-1.3824 1.536-2.7648 3.072-4.096 4.6592-0.6144 0.7168-1.2288 1.4336-1.792 2.1504-0.8704 1.0752-1.792 2.1504-2.6624 3.2768-1.024 1.28-2.048 2.6112-3.072 3.9424-0.2048 0.256-0.4096 0.5632-0.6144 0.8704a160.896 160.896 0 0 0-18.0736 29.5424z m744.0384 192.0512a17.63328 17.63328 0 0 0-11.4176 26.4704c21.6064 35.2256 30.1568 78.7456 23.9616 116.9408-6.912-7.3728-13.0048-11.8784-16.9472-14.3872-4.9152-3.1232-11.008-3.6352-16.3328-1.3312-5.3248 2.304-9.216 7.0656-10.3424 12.6976-4.096 20.4288-11.3152 63.9488-6.2464 98.6624-12.032-7.2704-18.3296-15.8208-19.8656-18.1248-4.096-6.0416-11.264-8.9088-18.432-7.3216-7.168 1.6384-12.4928 7.3728-13.6192 14.592-2.2016 14.5408-4.352 27.4944-6.2976 38.912-3.6864 21.8112-6.6048 39.1168-7.424 54.7328-4.6592-5.7344-8.704-12.3904-11.5712-18.3296a17.7664 17.7664 0 0 0-12.5952-9.6256 17.664 17.664 0 0 0-15.2064 4.4032c-9.8304 9.1136-35.2768 49.5104-40.8064 90.88-5.5296-7.2704-10.8032-16.5888-16.4352-28.8256a17.664 17.664 0 0 0-13.6704-10.1376c-5.9904-0.8192-11.9296 1.4848-15.8208 6.0928-24.6272 29.184-35.1232 50.6368-40.1408 86.8352-3.584-5.9904-6.7072-13.7728-9.1136-22.9376a15.4624 15.4624 0 0 0-7.7824-9.728c-3.84-1.9968-8.3456-2.2528-12.3904-0.768-2.2016 0.8192-52.3264 20.0704-66.2528 77.5168-34.816-27.0848-66.1504-66.304-66.4576-66.7136a15.38048 15.38048 0 0 0-15.1552-5.5296c-4.9664 1.024-9.0112 4.4032-10.9568 8.96-5.888 4.7104-28.8256 10.24-40.9088 13.1072-4.1472-28.672-13.4656-38.656-28.2112-52.2752-5.2224-4.8128-11.1616-10.2912-17.92-18.3296a17.52064 17.52064 0 0 0-15.872-6.0928c-5.9904 0.8192-11.1104 4.608-13.6704 10.1376-5.9392 12.8512-15.104 19.5072-26.0096 25.3952-3.84-39.1168-31.6928-68.1472-41.472-77.2608-4.096-3.7888-9.7792-5.4272-15.2064-4.352-5.1712 0.9728-9.6256 4.2496-12.1344 8.8576-2.816 3.2256-13.2096 9.5232-25.1392 15.0016 3.6352-27.0848 6.4512-63.5392-0.5632-109.9264a17.62304 17.62304 0 0 0-13.6192-14.6432c-7.168-1.6384-14.3872 1.28-18.432 7.3216-1.536 2.304-7.8336 10.9056-19.8656 18.1248 5.0688-34.7136-2.0992-78.2336-6.2464-98.6624a17.67936 17.67936 0 0 0-10.3424-12.7488 17.60256 17.60256 0 0 0-16.3328 1.3312c-3.9424 2.5088-10.0352 7.0144-16.9472 14.3872-6.1952-38.1952 2.3552-81.7152 23.9616-116.8896 3.0208-4.864 3.4304-10.9056 1.2288-16.128a17.78688 17.78688 0 0 0-12.5952-10.3424c-16.5376-3.5328-30.1056-17.7664-35.328-35.3792 26.624 5.5808 47.616 2.9184 62.5664-7.9872 19.456-14.1824 21.1456-36.9664 21.1968-44.2368 0.9728-21.7088 3.3792-39.7312 6.8096-54.8864l0.1536-0.4608c9.5744-41.728 27.1872-62.208 44.7488-80.7424 0.0512-0.0512 0.1024-0.1024 0.1536-0.2048 1.1264-1.1776 2.2528-2.4064 3.3792-3.584 1.28-1.3312 2.56-2.6624 3.7888-4.0448 1.4848-1.5872 2.9184-3.1232 4.4032-4.7616 1.6384-1.7408 3.2256-3.5328 4.8128-5.3248v-0.0512c0.1536-0.2048 0.3072-0.4096 0.4096-0.5632 3.6864-4.608 4.7616-10.7008 2.9696-16.2304-0.1536-0.4096-0.256-0.8704-0.4096-1.28-0.0512-0.1536-0.1536-0.3584-0.2048-0.512-0.512-1.28-1.024-2.6624-1.4848-4.096-0.2048-0.512-0.3584-1.0752-0.5632-1.5872-0.4608-1.4336-0.9216-2.8672-1.3312-4.4032-0.1024-0.256-0.1536-0.5632-0.256-0.8192-0.512-1.7408-0.9728-3.6352-1.3824-5.4784-0.1536-0.5632-0.256-1.1776-0.4096-1.792-0.3584-1.6896-0.768-3.3792-1.0752-5.1712-0.0512-0.3072-0.1536-0.6656-0.2048-0.9728-0.4096-2.048-0.7168-4.1472-1.0752-6.2464-0.1024-0.6144-0.1536-1.1776-0.256-1.792-0.256-1.8432-0.512-3.7376-0.7168-5.6832l-0.1536-1.1264c-0.256-2.2016-0.4608-4.5056-0.6144-6.7584-0.0512-0.5632-0.1024-1.1776-0.1024-1.792l-0.3072-5.888c0-0.4096-0.0512-0.8704-0.0512-1.28-0.0512-2.304-0.0512-4.608-0.0512-6.912 0-0.5632 0-1.1264 0.0512-1.6896 0.0512-1.9456 0.1024-3.8912 0.256-5.8368 0.0512-0.4608 0.0512-0.9728 0.0512-1.4336 0.1536-1.9456 0.3072-3.8912 0.512-5.8368 14.8992 28.0064 38.8608 44.3392 71.5776 48.6912 4.5568 0.6144 9.1136-0.5632 12.8512-3.3792 89.8048-67.0208 179.968-11.776 183.7568-9.3696 0.2048 0.1536 0.4608 0.256 0.6656 0.4096 10.0352 5.6832 20.224 3.84 26.4704-0.7168 8.2944-5.0688 95.9488-55.4496 183.296 9.6768 3.6864 2.7648 8.2944 3.9424 12.8512 3.328 32.7168-4.352 56.6784-20.736 71.5776-48.7424 0.256 2.2016 0.4096 4.4544 0.5632 6.7072 0.0512 0.6656 0.0512 1.28 0.1024 1.9456 0.1024 1.8944 0.1536 3.7888 0.2048 5.6832 0 0.4096 0 0.8704 0.0512 1.28 0 2.2528 0 4.4544-0.1024 6.7072 0 0.7168-0.0512 1.3824-0.1024 2.0992-0.0512 1.6896-0.1536 3.3792-0.256 5.0688-0.0512 0.6656-0.1024 1.28-0.1024 1.9456-0.1536 2.0992-0.3584 4.1984-0.5632 6.2976-0.1024 0.768-0.1536 1.4848-0.256 2.2528-0.1536 1.4848-0.3584 2.9184-0.5632 4.4032-0.1024 0.768-0.2048 1.5872-0.3584 2.3552-0.3072 1.9456-0.6144 3.84-0.9728 5.6832-0.1536 0.768-0.3072 1.4848-0.4608 2.2016-0.256 1.28-0.512 2.56-0.8192 3.7888-0.1536 0.768-0.3584 1.5872-0.5632 2.3552-0.4096 1.5872-0.768 3.1744-1.2288 4.7104-0.2048 0.6656-0.3584 1.28-0.5632 1.8944-0.3584 1.2288-0.7168 2.4064-1.0752 3.584-0.2048 0.6144-0.4096 1.2288-0.6144 1.792-0.4608 1.3824-0.9728 2.6624-1.4336 3.8912-0.0512 0.2048-0.1536 0.4096-0.2048 0.5632-0.256 0.6144-0.4608 1.28-0.6144 1.8944-0.0512 0.1536-0.1024 0.256-0.1536 0.4096-0.1024 0.512-0.2048 1.024-0.256 1.536-0.0512 0.3072-0.1024 0.6144-0.1536 0.8704v0.512c-0.3584 4.4032 0.9728 8.8064 3.84 12.3392l0.4096 0.5632c2.4576 2.816 4.9664 5.5808 7.5264 8.2944l5.4784 5.7856c18.9952 19.968 38.656 40.6016 48.7936 86.6304l0.1536 0.4608c3.1744 14.7456 5.4272 32.0512 6.3488 52.7872 0 7.1168 1.6896 30.0032 21.1968 44.2368 14.9504 10.9056 35.9424 13.6192 62.5664 7.9872-5.4272 17.7152-18.9952 32-35.5328 35.4816z" fill="#333B44" p-id="1231"></path><path d="M795.904 77.9776c-0.6144 0-1.2288-0.0512-1.8944-0.1024a15.3088 15.3088 0 0 1-13.2096-11.9296c-0.0512-0.3584-0.1536-0.7168-0.2048-1.0752a15.34976 15.34976 0 0 1 22.6304-15.7696c6.8096 3.7888 9.7792 12.0832 6.8096 19.3024a15.23712 15.23712 0 0 1-14.1312 9.5744z" fill="#333B44" p-id="1232"></path><path d="M446.208 347.2896c7.3728 1.3312 12.032 8.6528 9.7792 15.8208-9.6256 30.6176-43.4688 96.7168-149.7088 47.9744-39.5776-19.968-53.6064-69.7344-80.4352-94.0032s-2.9184-84.2752 61.0816-65.1264c52.2752 15.616 79.7696 32.1536 101.9904 25.1392 7.5264-2.3552 15.2064 3.328 15.616 11.1616 1.6384 31.3344 3.584 52.1728 41.6768 59.0336zM582.8096 346.6752c-9.1648 1.9456-14.7456 11.3664-11.6224 20.224 11.1616 31.8976 46.4384 90.9824 148.48 44.1856 39.5776-19.968 53.6064-69.7344 80.4352-94.0032s2.9184-84.2752-61.0816-65.1264c-50.2784 15.0528-77.6192 30.8736-99.4304 25.8048-9.1648-2.0992-17.8688 5.0688-18.3808 14.4384-1.6896 28.2624-4.9152 47.36-38.4 54.4768z" fill="#FFEED9" p-id="1233"></path><path d="M304.7936 338.176c-0.4096-0.2048-0.3072-0.8192 0.1536-0.768 6.5536 0.9216 24.1664 2.5088 41.1136-3.1744 21.3504-7.1168 51.0976-9.8304 70.9632 45.9776-12.9536 3.2768-23.3472 10.9568-26.624 14.2336-3.2768 3.2768-31.744 21.9136-59.648-25.1904-8.2944-16.5888-12.1344-24.1664-25.9584-31.0784zM725.4016 338.176c0.4096-0.2048 0.3072-0.8192-0.1536-0.768-6.5536 0.9216-24.1664 2.5088-41.1136-3.1744-21.3504-7.1168-51.0976-9.8304-70.9632 45.9776 12.9536 3.2768 23.3472 10.9568 26.624 14.2336 3.2768 3.2768 31.744 21.9136 59.648-25.1904 8.2432-16.5888 12.1344-24.1664 25.9584-31.0784z" fill="#FFFFFF" p-id="1234"></path><path d="M372.0704 416.1536c-1.8432 0-3.7376-0.1024-5.6832-0.3584-18.5344-2.3552-34.9696-15.36-48.8448-38.7072a5.8368 5.8368 0 0 1-0.512-0.9728c-8.0384-16.128-10.0864-19.712-19.1488-24.2176h-0.0512a15.7184 15.7184 0 0 1-7.936-18.8416c2.2528-7.168 9.7792-11.9296 17.2032-10.8544 4.4032 0.6144 19.968 2.2016 34.1504-2.5088 41.8304-13.9264 72.2432 4.7104 90.3168 55.3984a15.39584 15.39584 0 0 1-10.7008 20.0704c-9.5744 2.4064-17.664 8.3456-19.5584 10.1888-4.096 3.9936-14.8992 10.8032-29.2352 10.8032z m-27.8528-54.272c8.0896 13.5168 16.9472 21.76 24.9856 23.296 5.7856 1.0752 9.984-1.4848 10.8032-2.048 3.0208-2.8672 8.96-7.5264 16.896-11.5712-16.0256-32.768-34.4576-26.624-45.9264-22.784-3.9936 1.3312-7.9872 2.304-11.8784 3.0208 1.6896 3.1232 3.328 6.5024 5.12 10.0864z m35.584 21.4528c-0.1024 0.1024-0.2048 0.1536-0.256 0.256 0.1024-0.1024 0.1536-0.2048 0.256-0.256zM658.1248 416.1536c-14.336 0-25.1392-6.8096-29.2352-10.9056-1.8944-1.8944-9.984-7.7824-19.5584-10.1888a15.39584 15.39584 0 0 1-10.7008-20.0704c18.0736-50.688 48.4352-69.3248 90.3168-55.3984 14.1824 4.7104 29.7472 3.1232 34.2016 2.5088 7.4752-0.9728 14.8992 3.7376 17.152 10.8544 2.304 7.424-1.024 15.3088-7.936 18.8416h-0.0512c-9.0624 4.5568-11.0592 8.1408-19.1488 24.2176-0.1536 0.3072-0.3584 0.6656-0.512 0.9728-13.8752 23.3472-30.2592 36.4032-48.8448 38.7072-1.9456 0.3584-3.84 0.4608-5.6832 0.4608z m-7.936-33.024c0.768 0.512 5.0176 3.1232 10.8032 2.048 8.0384-1.536 16.896-9.8304 24.9856-23.296 1.792-3.584 3.4816-6.912 5.1712-10.0352-3.8912-0.7168-7.8848-1.7408-11.8784-3.0208-11.52-3.84-29.952-9.984-45.9264 22.784 7.8336 4.0448 13.824 8.6528 16.8448 11.52z m0.2048 0.2048l0.256 0.256-0.256-0.256z" fill="#333B44" p-id="1235"></path><path d="M743.3728 453.4272c-49.5616-40.6016-124.0576-10.8544-168.0896 13.3632 1.1264 5.8368 0.2048 12.1344-3.5328 17.8176l-33.4336 50.688c-9.5744 14.5408-30.9248 14.4384-40.3968-0.2048l-32.9216-50.9952c-2.9696-4.608-4.096-9.6768-3.7888-14.4896-43.1616-24.576-121.5488-58.2656-173.056-16.128-74.1376 60.7232 60.0576 186.6752 125.952 170.1888 46.4384-11.6224 80.5376-27.904 101.632-52.5824 21.0944 24.6272 55.1936 40.96 101.632 52.5824 65.9456 16.4352 200.192-109.5168 126.0032-170.24z" fill="#FFFFFF" p-id="1236"></path><path d="M617.4208 623.616c-46.4384-11.6224-80.5376-27.904-101.632-52.5824-21.0944 24.6272-55.1936 40.96-101.632 52.5824-8.704 2.2016-18.6368 1.8432-29.1328-0.4608 2.9184 42.8544 7.0144 100.0448 9.3696 119.8592 3.9424 33.2288 44.3392 80.128 136.96 80.128s117.248-61.3888 119.1936-84.3776c1.1776-13.4656 5.376-72.6528 8.6528-119.296-15.0528 5.376-29.5936 7.2192-41.7792 4.1472z" fill="#EF7062" p-id="1237"></path><path d="M584.3456 627.8144l27.392 12.1856-5.4272 39.6288-9.216 7.8336-18.1248-32.768zM461.6192 627.8144L434.2272 640l5.376 39.6288 9.2672 7.8336 18.1248-32.768z" fill="#FFFFFF" p-id="1238"></path><path d="M486.4512 572.16L431.9744 487.7312c-13.6192-21.1456 1.6384-48.9472 26.7776-48.8448l109.7728 0.5632c25.1392 0.1024 40.0896 28.1088 26.2656 49.1008l-55.296 83.8656c-12.6464 19.0976-40.6528 18.944-53.0432-0.256z" fill="#F7935C" p-id="1239"></path><path d="M645.5296 230.1952c-4.9152 0-9.728-2.3552-12.6976-6.7072-10.4448-15.36-56.6272-48.4864-112.896-19.712-4.2496 2.2016-9.3184 2.2528-13.6704 0.1536C441.9584 173.056 389.12 223.6416 386.8672 225.792a15.36 15.36 0 0 1-21.7088-0.2048 15.29856 15.29856 0 0 1 0.1536-21.6576c2.7648-2.7136 66.6112-64.512 147.4048-30.72 70.2464-31.6416 128.9728 8.7552 145.5104 33.024 4.7616 7.0144 2.9696 16.5888-4.0448 21.3504-2.6624 1.792-5.6832 2.6112-8.6528 2.6112z" fill="#333B44" p-id="1240"></path><path d="M470.272 814.9504c-8.5504-31.0784-22.8352-77.2608-37.5296-98.304-2.6112-3.7376-10.7008-3.9424-11.8272 0.512-3.6352 14.2336-8.704 37.7344-9.8304 61.44 12.3392 14.592 31.6928 28.1088 59.1872 36.352z" fill="#FFFFFF" p-id="1241"></path><path d="M631.6544 787.456c-0.0512-26.5216-5.9904-54.3232-10.0864-70.3488-1.1264-4.4032-9.216-4.2496-11.8272-0.512-15.36 22.016-30.3104 71.6288-38.656 102.5536 27.4944-5.9392 47.0016-18.0224 60.5696-31.6928z" fill="#FFFFFF" p-id="1242"></path><path d="M753.1008 441.5488c-36.2496-29.696-89.4976-30.8736-152.2176-4.2496a47.0528 47.0528 0 0 0-32.3072-13.2096l-109.7728-0.5632c-11.8784-0.0512-23.0912 4.5056-31.6928 12.1856-46.08-18.8416-104.8576-30.0544-148.6336 5.7856-29.8496 24.4224-35.5328 61.1328-15.6672 100.6592 18.3808 36.608 58.5216 73.5232 98.7648 89.7536l0.2048 3.6864c2.56 42.1888 5.1712 85.76 8.6528 103.9872 13.312 70.2464 60.1088 98.9184 161.5872 98.9184 28.672 0 51.9168-5.1712 70.656-13.3632 0.512-0.2048 1.024-0.4608 1.4848-0.6656 2.2528-1.024 4.5056-2.0992 6.656-3.1744l1.8432-0.9216c2.3552-1.28 4.6592-2.6112 6.912-3.9424 1.0752-0.6656 2.0992-1.3824 3.1744-2.048 1.1264-0.7168 2.2528-1.4848 3.328-2.2528 1.28-0.9216 2.56-1.792 3.7888-2.7648 0.4608-0.3584 0.8704-0.6656 1.28-1.024 2.816-2.2016 5.5296-4.5568 8.1408-7.0144 0.1024-0.1024 0.2048-0.2048 0.3072-0.256 0.9728-0.9216 1.9968-1.792 2.9696-2.7648 0.3072-0.3072 0.512-0.6144 0.768-0.9216 21.9648-22.6816 30.3104-49.2032 31.5392-63.8976 1.0752-12.8 4.6592-63.5392 7.7312-107.3152 35.84-18.2272 69.6832-51.2 86.1696-83.968 19.8656-39.5776 14.1824-76.2368-15.6672-100.6592z m-308.8384 21.1968c1.3824-2.56 5.5808-8.448 14.2848-8.448h0.1024l109.7728 0.5632c8.7552 0.0512 12.9024 6.0416 14.2848 8.6016s4.0448 9.3696-0.768 16.64l-53.8624 81.664s-6.2464 10.9568-14.6432 10.9568-13.056-7.5776-13.056-7.5776c-0.3584-0.4608-0.768-0.8192-1.0752-1.28L444.8768 479.4368c-4.7616-7.3728-1.9968-14.1312-0.6144-16.6912z m-64.9728 143.104c-32.768-10.9056-71.68-42.9056-89.0368-77.4656-13.4144-26.6752-10.8032-47.9232 7.68-63.0784 14.6432-11.9808 32.256-16.5888 50.688-16.5888 21.1968 0 43.52 6.0928 63.6416 14.1312-1.8944 11.3664 0.3072 23.2448 6.7584 33.2288l54.4768 84.4288c0.768 1.2288 1.6384 2.304 2.5088 3.4304-8.3456 4.9152-17.8688 9.3696-28.6208 13.4656-0.256 0.1024-0.5632 0.2048-0.8704 0.3072-2.2528 0.8192-4.5568 1.6896-6.912 2.4576-0.6656 0.256-1.3824 0.4608-2.048 0.7168-2.048 0.6656-4.096 1.3312-6.1952 1.9968-0.8704 0.256-1.6896 0.512-2.56 0.8192-2.0992 0.6144-4.3008 1.28-6.4512 1.8944-0.8192 0.256-1.6384 0.4608-2.5088 0.7168-3.0208 0.8192-6.144 1.6384-9.3184 2.4576-7.8336 1.9456-18.0224 1.0752-29.4912-2.56-0.6144-0.256-1.1776-0.256-1.7408-0.3584z m77.5168 26.4704c-1.792 21.9648-6.0928 31.5904-8.8576 35.1232-2.5088-5.9392-4.7104-17.2544-6.3488-27.2384 4.864-2.6112 10.1888-5.376 15.2064-7.8848z m-29.952 140.6976c0.768-9.8304 2.1504-19.456 3.7376-28.0576 5.0176 11.3664 10.3424 25.9072 15.7696 43.1104-8.448-4.9664-14.7968-10.24-19.5072-15.0528z m167.1168 22.272c6.1952-20.224 12.3392-37.3248 18.0224-50.2784 1.9968 10.9056 3.6864 23.4496 4.1984 35.84-6.144 5.3248-13.5168 10.2912-22.2208 14.4384z m50.2784-64.4096c-0.256 2.7648-0.8192 6.0416-1.8944 9.728-1.9456-11.008-4.1984-20.5824-5.888-27.2896-1.8944-7.4752-8.0896-13.0048-16.128-14.4896-8.96-1.6384-18.2784 1.9968-23.1424 9.0112-14.7456 21.1456-28.5696 63.1808-38.2976 97.9456-8.192 1.28-17.1008 1.9968-26.8288 1.9968-18.7904 0-34.8672-1.024-48.64-2.9184-9.5232-33.792-23.3472-75.9296-38.0416-97.024-4.9152-7.0144-14.2336-10.6496-23.1936-9.0112-8.0384 1.4848-14.1824 7.0144-16.128 14.4896-1.6384 6.3488-3.3792 14.0288-5.0176 22.528-0.1536-0.6656-0.256-1.28-0.4096-1.9456-2.9184-15.4112-5.4784-56.2176-7.7824-93.9008 2.56 0.256 5.0176 0.4096 7.4752 0.4096 0.3072 0 0.6656 0.0512 0.9728 0.0512 0.6144 0 1.1776-0.1024 1.7408-0.1024 1.792-0.0512 3.5328-0.1536 5.2736-0.3072 0.7168-0.0512 1.3824-0.1024 2.0992-0.2048 4.7616 30.4128 10.752 60.0576 35.2768 60.0576 27.904 0 42.1888-29.5424 42.7008-87.7056 6.144-3.4304 11.8272-7.0656 17.0496-10.9056 2.4064 0.4096 4.864 0.6656 7.3728 0.6656h0.256c4.096 0 8.0896-0.5632 11.9296-1.536 2.56 1.9456 5.2736 3.7888 8.0896 5.632 0.1536 0.1024 0.3072 0.2048 0.512 0.3072 2.6624 1.7408 5.4784 3.4304 8.3968 5.0688 0.3584 0.2048 0.768 0.4096 1.1264 0.6656 2.8672 1.5872 5.8368 3.1744 8.9088 4.7104 0.3584 0.2048 0.768 0.3584 1.1264 0.5632 1.4848 0.7168 3.0208 1.4848 4.608 2.2016 1.5872 53.2992 15.872 80.3328 42.5472 80.3328 24.3712 0 30.464-29.3376 35.1744-59.648 5.0688-0.3072 10.2912-1.0752 15.5136-2.304-3.6352 51.6096-5.9392 83.5584-6.7584 92.928z m-55.1424-98.56c5.0176 2.5088 10.3424 5.3248 15.2064 7.936-1.6384 9.9328-3.84 21.2992-6.3488 27.2384-2.7648-3.6352-7.0144-13.2608-8.8576-35.1744z m152.2176-103.936c-15.4624 30.7712-47.9744 59.4432-78.0288 73.1136-0.512 0.1536-1.024 0.2048-1.536 0.4608-13.824 6.0416-26.5728 8.6528-36.4544 7.5264h-0.2048c-1.3824-0.1536-2.7136-0.4096-3.9936-0.7168-3.328-0.8192-6.6048-1.6896-9.7792-2.56l-2.7136-0.768c-2.304-0.6656-4.608-1.3312-6.8096-1.9968-0.8704-0.256-1.792-0.5632-2.6624-0.8192-1.1776-0.3584-2.304-0.768-3.4304-1.1264-7.0656-3.2768-13.056-5.5296-18.1248-6.656-1.1776-0.512-2.4064-0.9728-3.584-1.4848-0.4096-0.1536-0.768-0.3584-1.1776-0.512-2.304-1.024-4.5056-2.048-6.656-3.1232a4.67968 4.67968 0 0 1-0.7168-0.3584c-4.9152-2.4576-9.5232-5.0176-13.7728-7.68 0.1536-0.256 0.3584-0.4608 0.5632-0.7168l55.296-83.8656a46.70976 46.70976 0 0 0 7.2192-32.3584c37.8368-15.7184 85.9648-26.2656 118.8352 0.6144 18.5856 15.104 21.1456 36.352 7.7312 63.0272z" fill="#333B44" p-id="1243"></path></svg>