<?xml version="1.0" standalone="no"?><!DOCTYPE svg PUBLIC "-//W3C//DTD SVG 1.1//EN" "http://www.w3.org/Graphics/SVG/1.1/DTD/svg11.dtd"><svg t="1621494709533" class="icon" viewBox="0 0 1024 1024" version="1.1" xmlns="http://www.w3.org/2000/svg" p-id="1380" xmlns:xlink="http://www.w3.org/1999/xlink" width="200" height="200"><defs><style type="text/css"></style></defs><path d="M512 263.3728S357.2736 201.728 283.904 51.6608a1.5872 1.5872 0 0 0-2.9696 0.3072C259.9936 143.36 318.464 269.0048 326.2464 285.184c0.4096 0.8704-0.0512 1.9456-1.024 2.1504-12.288 3.072-82.5856 24.576-123.648 119.1936-15.4112 32.7168-55.3472 65.4336-108.6976 33.28a1.5872 1.5872 0 0 0-2.4064 1.6384c8.4992 40.2432 45.9264 74.0352 54.4768 81.3056a1.536 1.536 0 0 1-0.2048 2.5088c-8.4992 5.2224-41.8816 31.8464-41.2672 126.9248 0 1.4848 1.8432 2.1504 2.816 1.024 22.7328-26.7776 56.9344-39.6288 68.6592-43.4176 1.3824-0.4608 2.56 1.0752 1.8432 2.304-10.3936 16.9984-51.9168 93.5936-27.0848 199.5264 0.3072 1.3824 2.2016 1.6384 2.9184 0.4608 23.296-38.4512 38.7072-53.3504 43.9808-57.8048 0.9216-0.768 2.2528-0.256 2.5088 0.8704 5.2736 24.2176 56.1664 218.0608 332.8512 218.112h0.1536c218.368-14.0288 285.2864-196.7104 292.5056-218.4704 0.3584-1.0752 1.5872-1.4336 2.4576-0.7168 5.0688 4.1984 20.5824 18.9952 44.2368 58.0096 0.7168 1.2288 2.6112 0.9216 2.9184-0.4608 24.832-105.9328-16.6912-182.5792-27.0848-199.5264-0.768-1.2288 0.4096-2.7648 1.8432-2.304 11.7248 3.7888 45.9264 16.64 68.6592 43.4176 0.9728 1.1264 2.7648 0.4608 2.816-1.024 0.6656-95.0784-32.768-121.7024-41.2672-126.9248a1.536 1.536 0 0 1-0.2048-2.5088c8.5504-7.2704 45.9776-41.0624 54.4768-81.3056 0.3072-1.3312-1.2288-2.304-2.4064-1.6384-53.3504 32.1536-93.2864-0.5632-108.6976-33.28-41.0624-94.6176-111.36-116.0704-123.648-119.1936a1.536 1.536 0 0 1-1.024-2.1504c7.7824-16.1792 66.2528-141.8752 45.312-233.216-0.3072-1.4336-2.304-1.6384-2.9696-0.3072C666.7264 201.728 512 263.3728 512 263.3728" fill="#F2B655" p-id="1381"></path><path d="M348.782291 578.308321a81.7152 50.3296 9.231 1 0 16.147271-99.355625 81.7152 50.3296 9.231 1 0-16.147271 99.355625Z" fill="#FFFFFF" p-id="1382"></path><path d="M700.16 283.4432c-0.4096 0.8704 0.0512 1.9456 1.024 2.1504 12.288 3.072 82.5856 24.576 123.648 119.1936a91.9552 91.9552 0 0 0 16.128 23.6544c0.8704 0.9216 2.4576 0.4608 2.7136-0.768 47.5648-208.896-71.5776-351.6416-95.232-377.4976-1.0752-1.1776-3.0208-0.1536-2.6624 1.4336 20.0704 91.2384-37.8368 215.7568-45.6192 231.8336zM199.9872 412.3648c1.4848-2.5088 2.8672-5.0176 4.0448-7.5776C245.0944 310.2208 315.392 288.7168 327.68 285.6448a1.536 1.536 0 0 0 1.024-2.1504c-7.7824-16.1792-66.2016-141.7728-45.312-233.1136a1.536 1.536 0 0 0-2.4576-1.5872c-23.6544 19.3024-155.2896 139.6736-80.9472 363.5712z" fill="#F7E9CF" p-id="1383"></path><path d="M514.4576 830.5664c33.28 0 50.9952-23.2448 60.0064-42.8032 5.6832-12.3392-3.4816-26.368-17.1008-26.368H472.4224c-13.824 0-23.04 14.5408-16.8448 26.88 9.728 19.456 27.8016 42.2912 58.88 42.2912z" fill="#F7935C" p-id="1384"></path><path d="M590.044076 537.888456a50.3296 81.7152 80.769 1 0 161.313913-26.216729 50.3296 81.7152 80.769 1 0-161.313913 26.216729Z" fill="#FFFFFF" p-id="1385"></path><path d="M944.2304 425.6256a16.9984 16.9984 0 0 0-18.6368-0.7168c-17.3568 10.4448-33.7408 13.4656-48.6912 8.9088-5.9392-1.792-11.6736-4.864-16.9984-8.9088 45.5168-212.6336-75.264-357.9904-100.1472-385.1776-2.8672-3.1744-6.7584-4.9664-10.8032-5.3248a15.1552 15.1552 0 0 0-3.0208-0.6656c-7.1168-0.8192-14.0288 2.9696-17.2032 9.4208-62.0032 126.7712-186.2656 188.9792-214.272 201.728C486.4 232.2432 362.2912 170.2912 300.1344 43.2128a16.88576 16.88576 0 0 0-13.2096-9.3184c-5.3248-1.7408-11.264-0.7168-15.7696 2.9696-27.5456 22.5792-160 145.8176-88.0128 373.2992-8.2432 11.5712-19.3024 20.1216-31.1808 23.7056-14.9504 4.5056-31.3344 1.536-48.6912-8.9088a16.9984 16.9984 0 0 0-18.6368 0.7168 16.93184 16.93184 0 0 0-6.7584 17.2544c7.168 33.9968 31.6416 62.976 47.8208 79.0528-15.36 16.9472-35.6864 53.6064-35.1744 128.6144 0.0512 7.0656 4.5056 13.4144 11.1616 15.8208 6.6048 2.4064 14.1312 0.4096 18.688-4.9664 8.2432-9.728 18.3808-17.408 28.16-23.3472-14.9504 37.8368-29.2352 99.2768-11.4176 175.2576 1.5872 6.7072 7.0144 11.776 13.824 12.8512a16.9472 16.9472 0 0 0 17.2032-7.936c10.2912-16.9472 18.8416-28.9792 25.4976-37.376 21.5552 60.8768 98.304 205.9776 340.736 205.9776h1.1264c193.4848-12.4416 273.5104-152.1152 297.9328-208.0256 6.8608 8.448 15.9744 21.0432 27.136 39.424 3.584 5.9392 10.3424 9.0624 17.152 7.9872 6.8608-1.0752 12.288-6.0928 13.8752-12.8512 17.8176-76.032 3.5328-137.472-11.4176-175.3088 9.7792 5.9392 19.9168 13.6192 28.16 23.3472a16.9984 16.9984 0 0 0 18.688 4.9664 17.0496 17.0496 0 0 0 11.1616-15.8208c0.512-75.008-19.8144-111.6672-35.1744-128.6144 16.1792-16.0768 40.6528-45.0048 47.8208-79.0016 1.536-6.656-1.1264-13.4144-6.6048-17.3568z m-109.1584-35.4304c-0.512-1.0752-1.024-1.9968-1.536-3.072-1.0752-2.2016-2.2016-4.4032-3.2768-6.5536-1.2288-2.304-2.4064-4.608-3.6352-6.8608-1.1264-2.048-2.304-4.096-3.4816-6.0416-1.28-2.1504-2.56-4.2496-3.84-6.2976-1.1776-1.8944-2.4064-3.7888-3.6352-5.5808-1.3312-1.9456-2.6112-3.8912-3.9424-5.7344-1.2288-1.7408-2.5088-3.4816-3.7376-5.1712-1.3312-1.792-2.6624-3.5328-4.0448-5.2224-1.28-1.5872-2.56-3.2256-3.84-4.7616-1.3824-1.6384-2.7136-3.1744-4.096-4.7104-1.28-1.4848-2.6112-2.9184-3.8912-4.352-1.3824-1.4848-2.7136-2.8672-4.096-4.2496-1.3312-1.3312-2.6112-2.6624-3.9424-3.9424-1.3824-1.3312-2.7136-2.56-4.096-3.7888-1.3312-1.2288-2.6112-2.4064-3.9424-3.584-1.3312-1.1776-2.6624-2.304-4.0448-3.3792-1.28-1.0752-2.6112-2.2016-3.8912-3.2256-1.3312-1.0752-2.6624-2.048-3.9424-3.0208-1.28-0.9728-2.56-1.9456-3.84-2.8672-1.28-0.9216-2.56-1.792-3.84-2.6624-1.2288-0.8192-2.4576-1.6896-3.6864-2.5088-1.28-0.8192-2.5088-1.5872-3.7376-2.3552-1.1776-0.7168-2.3552-1.4848-3.5328-2.1504-1.2288-0.7168-2.4576-1.3824-3.6352-2.048-1.0752-0.6144-2.2016-1.28-3.2768-1.8432-1.2288-0.6656-2.4064-1.2288-3.584-1.8432-0.9728-0.512-1.9968-1.024-2.9184-1.4848-1.28-0.6144-2.4576-1.1264-3.6352-1.6896-0.8192-0.3584-1.6384-0.768-2.4064-1.1264-1.8944-0.8192-3.7376-1.5872-5.4784-2.304 0.8704-1.8944 1.7408-3.9936 2.6624-6.144l0.4608-1.0752c0.9728-2.2528 1.9456-4.608 2.9696-7.0656 0.0512-0.1536 0.1536-0.3584 0.2048-0.512 1.0752-2.56 2.1504-5.2736 3.2768-8.0896 0-0.0512 0-0.0512 0.0512-0.1024 1.1264-2.816 2.2528-5.7856 3.4304-8.8576l0.3072-0.768c2.3552-6.1952 4.7104-12.8512 7.0656-19.8144 0.0512-0.2048 0.1536-0.3584 0.2048-0.5632 1.1776-3.4816 2.3552-7.1168 3.4816-10.752 0.0512-0.1536 0.1024-0.3584 0.1536-0.5632 2.304-7.3216 4.5568-15.0016 6.656-22.8864l0.3072-1.1264c1.024-3.9424 2.048-7.8848 3.0208-11.9296v-0.1024c0.9216-3.9936 1.8432-8.0384 2.7136-12.0832 0.0512-0.3072 0.1536-0.6656 0.2048-0.9728 0.8192-3.9936 1.5872-7.9872 2.304-12.032 0.1024-0.5632 0.2048-1.0752 0.256-1.6384 1.3824-8.0896 2.56-16.2304 3.4304-24.4224 0.0512-0.6656 0.1536-1.3824 0.2048-2.048 0.4096-3.9936 0.7168-7.9872 0.9728-11.9296 0.0512-0.512 0.0512-1.0752 0.1024-1.5872 0.2048-3.7376 0.3584-7.424 0.4096-11.1616 0-0.3584 0.0512-0.7168 0.0512-1.1264 36.7616 53.3504 89.4976 156.8768 69.5808 293.7856zM263.5776 87.2448v0.768c-0.1024 3.8912-0.0512 7.7824 0 11.6736 0 0.768 0 1.536 0.0512 2.2528 0.1024 3.9424 0.3584 7.936 0.6144 11.8784 0.0512 0.9216 0.1536 1.8432 0.2048 2.7136 0.3072 3.9936 0.7168 7.9872 1.1776 11.9808 0.0512 0.5632 0.1536 1.1264 0.2048 1.7408 0.4608 3.6864 0.9728 7.3728 1.536 11.0592 0.1024 0.768 0.2048 1.536 0.3584 2.304 0.6144 3.8912 1.28 7.7312 1.9968 11.52 0.2048 0.9728 0.3584 1.9456 0.5632 2.9184 0.768 3.7888 1.536 7.5776 2.3552 11.3152 0.1536 0.768 0.3584 1.4848 0.512 2.2016 0.768 3.3792 1.5872 6.7584 2.4064 10.0864 0.2048 0.7168 0.3584 1.4336 0.5632 2.2016 0.9216 3.6352 1.8944 7.168 2.8672 10.7008 0.256 0.9728 0.512 1.8944 0.8192 2.816 0.9728 3.4304 1.9968 6.8608 3.0208 10.1888 0.256 0.768 0.4608 1.536 0.7168 2.304 0.9728 3.072 1.8944 6.0928 2.8672 9.0624 0.1536 0.5632 0.3584 1.0752 0.512 1.6384 1.0752 3.2256 2.1504 6.4 3.2256 9.472 0.3072 0.8192 0.5632 1.5872 0.8704 2.4064 1.0752 2.9696 2.0992 5.888 3.1744 8.7552l0.768 1.9968c1.024 2.6624 1.9968 5.2736 2.9696 7.8336 0.1024 0.3072 0.256 0.6144 0.3584 0.9216 1.0752 2.7136 2.0992 5.3248 3.1232 7.8336 0.2048 0.5632 0.4608 1.1264 0.6656 1.6896 0.9728 2.4064 1.9456 4.6592 2.8672 6.8608 0.2048 0.4608 0.3584 0.8704 0.5632 1.3312 0.9216 2.2016 1.8432 4.352 2.7136 6.2464-1.6384 0.6656-3.4304 1.3824-5.2224 2.2016-0.6656 0.256-1.3312 0.6144-1.9968 0.9216-1.2288 0.5632-2.4576 1.1264-3.7376 1.7408-0.8192 0.4096-1.6896 0.8192-2.56 1.28-1.2288 0.6144-2.4064 1.2288-3.6864 1.8944-0.9216 0.512-1.8944 1.024-2.816 1.536a229.52448 229.52448 0 0 0-10.8544 6.4512c-1.024 0.6656-1.9968 1.28-3.072 1.9456-1.4848 0.9728-2.9696 1.9968-4.4544 3.072-0.9728 0.6656-1.8944 1.3312-2.8672 1.9968-2.048 1.4848-4.1472 3.1232-6.2464 4.7616-0.5632 0.4608-1.1776 0.9216-1.7408 1.3824-2.304 1.8432-4.608 3.7888-6.9632 5.8368-0.9216 0.8192-1.8432 1.6896-2.7648 2.5088-1.6384 1.4848-3.2768 2.9696-4.9152 4.5568-1.0752 1.024-2.0992 2.0992-3.1232 3.1744-1.536 1.536-3.0208 3.072-4.5568 4.7104l-3.2768 3.584c-1.4848 1.6384-2.9696 3.3792-4.4544 5.12-1.0752 1.28-2.1504 2.6112-3.2256 3.9424-1.4848 1.8432-2.9696 3.7888-4.4032 5.7344-1.024 1.3824-2.048 2.7136-3.072 4.1472-1.536 2.1504-3.072 4.4032-4.608 6.7072-0.9216 1.3312-1.792 2.6112-2.7136 3.9936-2.048 3.1744-4.0448 6.5024-6.0416 9.8816-0.3584 0.5632-0.7168 1.1264-1.024 1.7408-35.2256-145.5616 21.0944-239.2064 59.7504-283.4944z m607.8976 422.0928a16.93696 16.93696 0 0 0 2.1504 27.2384c3.072 1.8944 26.88 18.5344 32.6656 81.7664-19.8144-14.08-40.1408-21.76-50.1248-24.9856a17.0496 17.0496 0 0 0-18.5344 5.632c-4.352 5.5296-4.8128 13.312-1.1264 19.3024 7.424 12.0832 40.0896 70.9632 30.976 154.4704-14.08-19.5072-23.808-28.7232-28.16-32.3072-4.3008-3.584-10.0864-4.8128-15.4112-3.2768-5.376 1.536-9.6256 5.632-11.4176 10.9568-6.6048 19.8656-70.2976 194.3552-278.4768 207.9744-264.9088-0.256-312.832-184.9344-317.3888-206.0288a17.08032 17.08032 0 0 0-11.1104-12.4416c-1.7408-0.6144-3.584-0.8704-5.4272-0.8704-3.9424 0-7.8336 1.3824-10.9056 3.9424-5.2736 4.4544-14.6944 13.7728-27.8528 32-9.0624-83.5072 23.552-142.336 30.976-154.4192a16.896 16.896 0 0 0-1.1776-19.3024 17.024 17.024 0 0 0-18.4832-5.632c-9.9328 3.2256-30.2592 10.9056-50.1248 24.9856 5.7856-63.2832 29.5936-79.872 32.6656-81.7664a16.9472 16.9472 0 0 0 8.0384-13.1072 16.9984 16.9984 0 0 0-5.888-14.1824c-5.0176-4.3008-24.832-21.9136-38.144-44.9024 17.0496 3.8912 31.3344 1.9456 41.6768-1.1776 20.8384-6.2976 39.7312-21.9136 52.224-42.9568 0-0.0512 0.0512-0.0512 0.1024-0.1024 1.792-3.0208 3.3792-5.9904 4.9152-9.2672 29.7984-68.6592 75.0592-95.6416 99.072-105.5744 6.5536-2.7136 11.5712-4.1472 14.1824-4.8128 1.2288-0.3072 2.4064-0.768 3.5328-1.3312 0.0512-0.0512 0.1024-0.0512 0.1536-0.1024 1.0752-0.5632 2.048-1.1776 2.9696-1.9456 0.3584-0.3072 0.6144-0.6656 0.9216-0.9728 0.5632-0.5632 1.1776-1.0752 1.6384-1.6896 0.256-0.3072 0.4096-0.7168 0.6144-1.024 0.4608-0.7168 0.9728-1.3824 1.3312-2.1504v-0.0512c0.2048-0.4608 0.3072-0.9216 0.4608-1.3824 0.256-0.7168 0.5632-1.4336 0.7168-2.1504 0.8192-3.6864 0.3584-7.5264-1.28-10.9568-0.4096-0.8192-0.9728-2.048-1.7408-3.6352-0.0512-0.1536-0.1536-0.3072-0.2048-0.4608-0.3072-0.6144-0.6144-1.3312-0.9216-2.048-0.1536-0.3072-0.256-0.5632-0.4096-0.8704-0.3072-0.7168-0.6656-1.4848-1.024-2.2528-0.1536-0.3584-0.3072-0.6656-0.4608-1.024l-1.1776-2.6624-0.4608-1.0752c-0.5632-1.28-1.1264-2.6112-1.7408-3.9936a130.26816 130.26816 0 0 0-1.8944-4.4544c-0.3072-0.6656-0.5632-1.4336-0.8704-2.1504-0.3584-0.8704-0.7168-1.792-1.1264-2.7136-0.3072-0.8192-0.6656-1.6384-1.024-2.5088-0.3584-0.9216-0.7168-1.792-1.0752-2.7648-0.3584-0.8704-0.7168-1.792-1.0752-2.7136-0.3584-0.9728-0.768-1.9456-1.1264-2.9184-0.3584-0.9728-0.7168-1.8944-1.1264-2.8672-0.4608-1.1264-0.8704-2.3552-1.3312-3.5328-0.512-1.3312-1.024-2.7136-1.536-4.1472-0.512-1.4336-1.0752-2.9184-1.5872-4.4032l-1.0752-3.072c-0.4096-1.1776-0.8192-2.4064-1.28-3.584l-1.0752-3.2256-1.2288-3.6864c-0.3584-1.0752-0.7168-2.2016-1.0752-3.328-0.4096-1.3312-0.8192-2.6112-1.28-3.9424-0.3584-1.0752-0.6656-2.1504-1.024-3.2768-0.4608-1.4848-0.9216-3.0208-1.3824-4.5568-0.3072-0.9728-0.5632-1.8944-0.8704-2.8672-0.7168-2.4576-1.4336-4.9152-2.0992-7.424-0.2048-0.7168-0.4096-1.4336-0.5632-2.1504l-1.536-5.6832c-0.256-0.9728-0.512-1.9456-0.7168-2.9184-0.4096-1.6896-0.8704-3.3792-1.28-5.12-0.256-1.024-0.512-2.048-0.7168-3.1232-0.4096-1.6896-0.768-3.4304-1.1776-5.1712-0.2048-1.024-0.4608-1.9968-0.6656-3.0208-0.4096-1.8944-0.768-3.7888-1.1776-5.6832-0.1536-0.8192-0.3584-1.6896-0.512-2.5088-0.512-2.7136-1.024-5.376-1.4336-8.0896 0-0.0512 0-0.1024-0.0512-0.1536-0.4608-2.8672-0.9216-5.7344-1.3312-8.6016-0.0512-0.512-0.1536-1.0752-0.2048-1.5872-0.3072-2.2528-0.6144-4.5568-0.8704-6.8096-0.1024-0.768-0.1536-1.5872-0.256-2.3552l-0.6144-6.1952c-0.0512-0.8192-0.1536-1.6384-0.2048-2.4576-0.1536-2.0992-0.3072-4.1984-0.4096-6.2976-0.0512-0.7168-0.1024-1.4336-0.1024-2.2016-0.1024-2.4576-0.2048-4.864-0.2048-7.2704v-1.0752-0.768C373.76 220.928 502.6304 273.4592 508.6208 275.8144c3.6352 1.4848 7.7312 1.4848 11.3664 0 5.9904-2.3552 134.8608-54.9376 214.528-180.48v1.3824c0 0.7168-0.0512 1.4848-0.0512 2.2016-0.0512 2.048-0.1024 4.1472-0.2048 6.2464l-0.1536 2.4064c-0.1024 2.048-0.256 4.1472-0.4096 6.1952-0.0512 0.768-0.1024 1.4848-0.2048 2.2528-0.2048 2.304-0.4608 4.608-0.7168 6.912l-0.1536 1.4848c-0.6656 5.7344-1.4848 11.52-2.4576 17.2544-0.0512 0.3584-0.1024 0.7168-0.2048 1.024-0.4096 2.4576-0.8704 4.9152-1.3312 7.3216-0.1024 0.6144-0.256 1.2288-0.3584 1.8432-0.4096 2.2016-0.8704 4.352-1.3312 6.5536-0.1536 0.6656-0.3072 1.3312-0.4096 1.9968-0.4608 2.2016-0.9728 4.4032-1.4848 6.6048-0.1024 0.5632-0.256 1.0752-0.3584 1.6384-0.6144 2.56-1.2288 5.0688-1.8944 7.5776-0.0512 0.1536-0.0512 0.3072-0.1024 0.4096a433.99168 433.99168 0 0 1-4.7616 17.0496c-0.6656 2.2528-1.3312 4.4544-2.048 6.656l-0.4608 1.536c-0.6144 1.9968-1.28 3.9936-1.8944 5.9392-0.1536 0.512-0.3072 1.024-0.512 1.536-0.6656 1.9968-1.3312 3.9936-1.9968 5.9392-0.1024 0.3584-0.256 0.768-0.3584 1.1264-2.4064 7.0656-4.864 13.7216-7.168 19.8144-0.1024 0.3072-0.256 0.6144-0.3584 0.9216-0.6656 1.6896-1.28 3.328-1.8944 4.9152-0.1536 0.4096-0.3072 0.8192-0.512 1.2288-0.5632 1.4848-1.1776 2.9184-1.6896 4.3008-0.1536 0.4096-0.3584 0.8192-0.512 1.28-0.5632 1.3824-1.1264 2.7648-1.6896 4.096-0.1024 0.3072-0.256 0.6144-0.3584 0.9216-1.3312 3.2256-2.6112 6.1952-3.7888 8.8576-0.1024 0.2048-0.2048 0.4096-0.3072 0.6656-0.4608 1.024-0.8704 2.048-1.3312 2.9696-0.2048 0.4096-0.3584 0.768-0.512 1.1776-0.3072 0.6656-0.6144 1.3312-0.8704 1.9968-0.2048 0.4096-0.3584 0.8192-0.5632 1.2288l-0.6144 1.3824c-0.2048 0.4096-0.4096 0.8704-0.5632 1.28-0.1024 0.256-0.2048 0.4608-0.3072 0.6656-0.512 1.0752-0.9216 1.9968-1.2288 2.6112a16.896 16.896 0 0 0-0.1024 14.4896c0.3584 0.8192 0.8704 1.536 1.3824 2.2528 0.2048 0.3072 0.3584 0.6656 0.6144 0.9728 2.304 2.9696 5.5296 5.0688 9.216 5.9904 1.9968 0.512 5.376 1.4848 9.728 3.072 21.6064 7.9872 68.1472 32.256 100.096 99.6352 1.28 2.6624 2.5088 5.376 3.6864 8.1408 1.3312 2.816 2.816 5.5808 4.4032 8.2944 0.6144 1.0752 1.28 2.0992 1.9456 3.1232 1.024 1.6384 2.048 3.2256 3.1744 4.7616 0.768 1.0752 1.5872 2.1504 2.3552 3.2256 1.2288 1.5872 2.4576 3.1232 3.7376 4.608 0.7168 0.8192 1.3824 1.6384 2.0992 2.4064 0.3584 0.4096 0.7168 0.8704 1.1264 1.28 0.3584 0.3584 0.7168 0.6144 1.0752 0.9216 10.7008 10.9568 23.4496 19.2 37.12 23.3472 10.3424 3.1232 24.6272 5.0688 41.6768 1.1776-13.4144 22.9376-33.1776 40.6016-38.2464 44.9024z" fill="#333B44" p-id="1386"></path><path d="M419.7376 679.8848a15.36 15.36 0 0 0 3.0208 21.504c2.7648 2.0992 5.9904 3.072 9.216 3.072 4.6592 0 9.2672-2.0992 12.288-6.0928 112.128-148.7872-12.3904-314.9824-13.6192-316.6208-5.12-6.7584-14.7456-7.9872-21.504-2.8672-6.7584 5.12-8.0384 14.7968-2.9184 21.504 4.608 6.0416 111.4624 149.504 13.5168 279.5008z" fill="#333B44" p-id="1387"></path><path d="M345.4976 593.2544c5.632 1.28 11.4176 1.8432 17.3056 1.8432 35.4304 0 72.5504-21.4528 87.7056-45.1072 2.7648-4.3008 3.1744-9.728 1.1264-14.3872-16.4352-37.7856-31.1808-63.232-84.224-71.8336-53.248-8.6528-82.688 21.1968-102.144 40.96-4.5056 4.5568-5.6832 11.3664-3.0208 17.2032 22.4256 48.64 57.6512 65.6384 83.2512 71.3216z m10.2912-99.9936a34.92864 34.92864 0 0 0-11.3152 40.0384c6.8608 18.0224 27.0336 27.136 45.056 20.2752 12.9024-4.864 21.1456-16.5888 22.3744-29.44 2.6624 4.5056 5.1712 9.5744 7.8336 15.36-14.7456 15.616-45.3632 28.672-67.6352 23.7568-17.152-3.7888-40.2432-14.7456-57.1392-44.7488 17.5104-16.6912 34.1504-27.648 60.8256-25.2416zM596.1728 704.4608c3.2256 0 6.4512-1.024 9.216-3.072a15.36 15.36 0 0 0 3.0208-21.504c-97.9456-129.9968 8.9088-273.4592 13.5168-279.5008 5.12-6.7584 3.84-16.384-2.8672-21.504-6.7584-5.12-16.384-3.84-21.5552 2.8672-1.28 1.6384-125.7472 167.8336-13.6192 316.6208 3.0208 3.9936 7.6288 6.0928 12.288 6.0928z" fill="#333B44" p-id="1388"></path><path d="M751.9744 647.0656c-2.6624 2.7648-65.5872 68.4032-72.8576 140.544 0 0.2048-0.0512 0.4096-0.0512 0.6656l-0.2048 3.84c-0.8192 18.3296-3.4304 29.696-8.96 36.0448 0.7168-38.8096-25.7536-57.7536-40.8576-62.464-8.0896-2.56-16.7424 1.9968-19.2512 10.0864a15.4112 15.4112 0 0 0 10.0864 19.2512c0.9216 0.3072 22.3744 7.3728 18.944 38.0416-2.56 22.9376-22.1696 38.7072-106.1888 40.5504v-29.7472c23.9616-5.6832 43.4176-22.784 55.808-49.6128a33.6896 33.6896 0 0 0-2.2528-32.4096 33.9456 33.9456 0 0 0-28.7744-15.7696h-84.992c-11.9296 0-22.784 6.0928-29.0816 16.2304a33.59232 33.59232 0 0 0-1.4848 32.8704c14.08 28.1088 35.1232 45.3632 60.0064 49.664v28.8256c-73.472-1.2288-108.2368-13.312-112.0256-38.7584-4.096-27.2896 15.5648-39.8848 17.9712-41.2672a15.32928 15.32928 0 0 0 5.7344-20.8384 15.3088 15.3088 0 0 0-20.8896-5.8368c-1.4848 0.8192-33.4848 19.5072-33.9456 59.5968-4.6592-6.5536-6.912-17.5104-7.68-34.4064l-0.2048-3.84c0-0.2048-0.0512-0.4096-0.0512-0.6656-7.3216-72.1408-70.1952-137.7792-72.8576-140.544-5.888-6.0928-15.616-6.2464-21.7088-0.3584a15.36 15.36 0 0 0-0.3584 21.7088c0.5632 0.6144 57.9072 60.3648 64.3584 121.856l0.1536 3.1744c0.768 17.0496 3.1232 66.7136 49.3056 71.4752 24.3712 34.2016 85.76 39.5264 145.3568 39.5264 58.2144 0 119.9616-3.5328 144.2304-39.424 47.2576-4.096 49.6128-54.4256 50.3808-71.5776l0.1536-3.1744c6.4-61.2864 63.7952-121.2928 64.3584-121.856 5.888-6.0928 5.7344-15.8208-0.3584-21.7088s-15.9232-5.7856-21.8112 0.3072z m-282.6752 134.2976c-0.512-0.9728-0.4096-1.9968 0.1536-2.9696 0.4096-0.6144 1.28-1.6384 2.9184-1.6384h84.9408c1.6384 0 2.5088 1.024 2.9184 1.5872 0.6144 0.9728 0.7168 1.9968 0.2048 2.9696-10.3936 22.4768-25.856 33.8944-46.08 33.8944-18.5856 0-33.792-11.3664-45.056-33.8432zM575.9488 531.712c-2.048 4.7104-1.5872 10.0864 1.1776 14.3872 15.1552 23.6544 52.2752 45.1072 87.7056 45.1072 5.8368 0 11.6224-0.5632 17.3056-1.8432 25.6-5.6832 60.8256-22.6816 83.2-71.3728 2.6624-5.7856 1.4848-12.6464-3.0208-17.2032-19.456-19.7632-48.8448-49.6128-102.144-40.96-53.0432 8.704-67.7888 34.0992-84.224 71.8848z m39.7312-11.4176a34.9696 34.9696 0 0 0 22.3744 29.44c18.0224 6.8608 38.1952-2.2528 45.056-20.2752 5.5808-14.7456 0.5632-30.8736-11.3152-40.0384 26.6752-2.4064 43.3152 8.5504 60.7744 25.2416-16.896 30.0032-39.9872 40.96-57.1392 44.7488-22.272 4.9664-52.8896-8.0896-67.6352-23.7568 2.7136-5.7856 5.2224-10.8544 7.8848-15.36z" fill="#333B44" p-id="1389"></path></svg>